<svg width="30" height="30" viewBox="0 0 30 30" fill="none" xmlns="http://www.w3.org/2000/svg">
<path d="M28.4 24.375C28.4499 23.9598 28.4499 23.5402 28.4 23.125L29.7125 22.1C29.8375 22.0125 29.8625 21.875 29.7875 21.7L28.5375 19.55C28.4625 19.4125 28.3 19.375 28.1625 19.4125L26.6 20C26.25 19.7875 25.9375 19.575 25.55 19.425L25.3125 17.7625C25.3008 17.6884 25.2627 17.6211 25.2053 17.5729C25.1479 17.5247 25.075 17.4988 25 17.5H22.5C22.35 17.5 22.2125 17.6125 22.1875 17.7625L21.9625 19.425C21.5625 19.575 21.25 19.7875 20.9 20L19.375 19.4125C19.2125 19.375 19.0375 19.4125 18.9625 19.55L17.7125 21.7C17.6375 21.875 17.675 22.0125 17.7875 22.1L19.1125 23.125C19.0875 23.3375 19.0625 23.55 19.0625 23.75C19.0625 23.95 19.0875 24.1625 19.1125 24.375L17.7875 25.4C17.675 25.4875 17.6375 25.6625 17.7125 25.8L18.9625 27.9625C19.0375 28.125 19.2125 28.125 19.375 28.125L20.9 27.4625C21.25 27.7125 21.5625 27.925 21.9625 28.0875L22.1875 29.7375C22.2125 29.8875 22.35 30 22.5 30H25C25.1625 30 25.2875 29.8875 25.3125 29.7375L25.55 28.0875C25.9375 27.925 26.25 27.7125 26.6 27.4625L28.1625 28.125C28.3 28.125 28.4625 28.125 28.5375 27.9625L29.7875 25.8C29.8625 25.6625 29.8375 25.4875 29.7125 25.4L28.4 24.375ZM23.75 25.9375C22.55 25.9375 21.5625 24.9625 21.5625 23.75C21.5625 22.5375 22.55 21.5625 23.75 21.5625C24.95 21.5625 25.9375 22.5375 25.9375 23.75C25.9375 24.9625 24.9625 25.9375 23.75 25.9375ZM15.1 25H3.75V23.75L6.25 21.25V13.75C6.25 9.875 8.75 6.5 12.5 5.375V5C12.5 3.625 13.625 2.5 15 2.5C16.375 2.5 17.5 3.625 17.5 5V5.375C21.25 6.5 23.75 9.875 23.75 13.75V15C22.8875 15 22.0375 15.1375 21.25 15.3625V13.75C21.25 10.25 18.5 7.5 15 7.5C11.5 7.5 8.75 10.25 8.75 13.75V22.5H15.1C15.0375 22.9125 15 23.325 15 23.75C15 24.175 15.0375 24.5875 15.1 25ZM15.375 26.25C15.625 27 15.925 27.7125 16.325 28.3625C15.9375 28.6 15.4875 28.75 15 28.75C13.625 28.75 12.5 27.625 12.5 26.25H15.375Z" fill="white"/>
</svg>
