<svg width="164" height="20" viewBox="0 0 164 20" fill="none" xmlns="http://www.w3.org/2000/svg">
<circle cx="2.72727" cy="10.8182" r="2.72727" fill="#646464"/>
<circle cx="8.72727" cy="3.72727" r="2.72727" fill="#646464"/>
<circle cx="8.72727" cy="16.2727" r="2.72727" fill="#646464"/>
<circle cx="15.2727" cy="10.8182" r="2.72727" fill="#646464"/>
<path d="M27.328 16V4.8H32.8C34.208 4.8 35.264 5.06667 35.968 5.6C36.6827 6.13333 37.04 6.83733 37.04 7.712C37.04 8.29867 36.896 8.81067 36.608 9.248C36.32 9.67467 35.9253 10.0053 35.424 10.24C34.9227 10.4747 34.3467 10.592 33.696 10.592L34 9.936C34.704 9.936 35.328 10.0533 35.872 10.288C36.416 10.512 36.8373 10.848 37.136 11.296C37.4453 11.744 37.6 12.2933 37.6 12.944C37.6 13.904 37.2213 14.656 36.464 15.2C35.7067 15.7333 34.592 16 33.12 16H27.328ZM29.904 14.048H32.928C33.6 14.048 34.1067 13.9413 34.448 13.728C34.8 13.504 34.976 13.152 34.976 12.672C34.976 12.2027 34.8 11.856 34.448 11.632C34.1067 11.3973 33.6 11.28 32.928 11.28H29.712V9.392H32.48C33.1093 9.392 33.5893 9.28533 33.92 9.072C34.2613 8.848 34.432 8.512 34.432 8.064C34.432 7.62667 34.2613 7.30133 33.92 7.088C33.5893 6.864 33.1093 6.752 32.48 6.752H29.904V14.048ZM39.3864 16V7.392H41.7704V9.824L41.4344 9.12C41.6904 8.512 42.101 8.05333 42.6664 7.744C43.2317 7.424 43.9197 7.264 44.7304 7.264V9.568C44.6237 9.55733 44.5277 9.552 44.4424 9.552C44.357 9.54133 44.2664 9.536 44.1704 9.536C43.4877 9.536 42.933 9.73333 42.5064 10.128C42.0904 10.512 41.8824 11.1147 41.8824 11.936V16H39.3864ZM50.248 16.128C49.3307 16.128 48.5147 15.936 47.8 15.552C47.096 15.168 46.536 14.6453 46.12 13.984C45.7147 13.312 45.512 12.5493 45.512 11.696C45.512 10.832 45.7147 10.0693 46.12 9.408C46.536 8.736 47.096 8.21333 47.8 7.84C48.5147 7.456 49.3307 7.264 50.248 7.264C51.1547 7.264 51.9653 7.456 52.68 7.84C53.3947 8.21333 53.9547 8.73067 54.36 9.392C54.7653 10.0533 54.968 10.8213 54.968 11.696C54.968 12.5493 54.7653 13.312 54.36 13.984C53.9547 14.6453 53.3947 15.168 52.68 15.552C51.9653 15.936 51.1547 16.128 50.248 16.128ZM50.248 14.08C50.664 14.08 51.0373 13.984 51.368 13.792C51.6987 13.6 51.96 13.328 52.152 12.976C52.344 12.6133 52.44 12.1867 52.44 11.696C52.44 11.1947 52.344 10.768 52.152 10.416C51.96 10.064 51.6987 9.792 51.368 9.6C51.0373 9.408 50.664 9.312 50.248 9.312C49.832 9.312 49.4587 9.408 49.128 9.6C48.7973 9.792 48.5307 10.064 48.328 10.416C48.136 10.768 48.04 11.1947 48.04 11.696C48.04 12.1867 48.136 12.6133 48.328 12.976C48.5307 13.328 48.7973 13.6 49.128 13.792C49.4587 13.984 49.832 14.08 50.248 14.08ZM58.37 16L55.266 7.392H57.618L60.194 14.8H59.074L61.762 7.392H63.874L66.482 14.8H65.362L68.018 7.392H70.226L67.106 16H64.69L62.402 9.648H63.138L60.77 16H58.37ZM76.6184 7.264C77.301 7.264 77.909 7.40267 78.4424 7.68C78.9864 7.94667 79.413 8.36267 79.7224 8.928C80.0317 9.48267 80.1864 10.1973 80.1864 11.072V16H77.6904V11.456C77.6904 10.7627 77.5357 10.2507 77.2264 9.92C76.9277 9.58933 76.501 9.424 75.9464 9.424C75.5517 9.424 75.1944 9.50933 74.8744 9.68C74.565 9.84 74.3197 10.0907 74.1384 10.432C73.9677 10.7733 73.8824 11.2107 73.8824 11.744V16H71.3864V7.392H73.7704V9.776L73.3224 9.056C73.6317 8.48 74.0744 8.03733 74.6504 7.728C75.2264 7.41867 75.8824 7.264 76.6184 7.264ZM87.1561 16V4.8H89.7481V13.888H95.3641V16H87.1561ZM101.979 16V14.32L101.819 13.952V10.944C101.819 10.4107 101.654 9.99467 101.323 9.696C101.003 9.39733 100.507 9.248 99.8349 9.248C99.3762 9.248 98.9229 9.32267 98.4749 9.472C98.0375 9.61067 97.6642 9.80267 97.3549 10.048L96.4589 8.304C96.9282 7.97333 97.4935 7.71733 98.1549 7.536C98.8162 7.35467 99.4882 7.264 100.171 7.264C101.483 7.264 102.502 7.57333 103.227 8.192C103.952 8.81067 104.315 9.776 104.315 11.088V16H101.979ZM99.3549 16.128C98.6829 16.128 98.1069 16.016 97.6269 15.792C97.1469 15.5573 96.7789 15.2427 96.5229 14.848C96.2669 14.4533 96.1389 14.0107 96.1389 13.52C96.1389 13.008 96.2615 12.56 96.5069 12.176C96.7629 11.792 97.1629 11.4933 97.7069 11.28C98.2509 11.056 98.9602 10.944 99.8349 10.944H102.123V12.4H100.107C99.5202 12.4 99.1149 12.496 98.8909 12.688C98.6775 12.88 98.5709 13.12 98.5709 13.408C98.5709 13.728 98.6935 13.984 98.9389 14.176C99.1949 14.3573 99.5415 14.448 99.9789 14.448C100.395 14.448 100.768 14.352 101.099 14.16C101.43 13.9573 101.67 13.664 101.819 13.28L102.203 14.432C102.022 14.9867 101.691 15.408 101.211 15.696C100.731 15.984 100.112 16.128 99.3549 16.128ZM108.386 16L105.282 7.392H107.634L110.21 14.8H109.09L111.778 7.392H113.89L116.498 14.8H115.378L118.034 7.392H120.242L117.122 16H114.706L112.418 9.648H113.154L110.786 16H108.386ZM128.509 9.84H133.885V11.92H128.509V9.84ZM128.701 16H126.109V4.8H134.573V6.88H128.701V16ZM136.152 16V7.392H138.648V16H136.152ZM137.4 6.192C136.941 6.192 136.568 6.05867 136.28 5.792C135.992 5.52533 135.848 5.19467 135.848 4.8C135.848 4.40533 135.992 4.07467 136.28 3.808C136.568 3.54133 136.941 3.408 137.4 3.408C137.859 3.408 138.232 3.536 138.52 3.792C138.808 4.03733 138.952 4.35733 138.952 4.752C138.952 5.168 138.808 5.51467 138.52 5.792C138.243 6.05867 137.869 6.192 137.4 6.192ZM140.965 16V7.392H143.349V9.824L143.013 9.12C143.269 8.512 143.679 8.05333 144.245 7.744C144.81 7.424 145.498 7.264 146.309 7.264V9.568C146.202 9.55733 146.106 9.552 146.021 9.552C145.935 9.54133 145.845 9.536 145.749 9.536C145.066 9.536 144.511 9.73333 144.085 10.128C143.669 10.512 143.461 11.1147 143.461 11.936V16H140.965ZM158.832 7.264C159.515 7.264 160.118 7.40267 160.64 7.68C161.174 7.94667 161.59 8.36267 161.888 8.928C162.198 9.48267 162.352 10.1973 162.352 11.072V16H159.856V11.456C159.856 10.7627 159.712 10.2507 159.424 9.92C159.136 9.58933 158.731 9.424 158.208 9.424C157.846 9.424 157.52 9.50933 157.232 9.68C156.944 9.84 156.72 10.0853 156.56 10.416C156.4 10.7467 156.32 11.168 156.32 11.68V16H153.824V11.456C153.824 10.7627 153.68 10.2507 153.392 9.92C153.115 9.58933 152.715 9.424 152.192 9.424C151.83 9.424 151.504 9.50933 151.216 9.68C150.928 9.84 150.704 10.0853 150.544 10.416C150.384 10.7467 150.304 11.168 150.304 11.68V16H147.808V7.392H150.192V9.744L149.744 9.056C150.043 8.46933 150.464 8.02667 151.008 7.728C151.563 7.41867 152.192 7.264 152.896 7.264C153.686 7.264 154.374 7.46667 154.96 7.872C155.558 8.26667 155.952 8.87467 156.144 9.696L155.264 9.456C155.552 8.784 156.011 8.25067 156.64 7.856C157.28 7.46133 158.011 7.264 158.832 7.264Z" fill="#646464"/>
</svg>
