<svg width="30" height="30" viewBox="0 0 30 30" fill="none" xmlns="http://www.w3.org/2000/svg">
<path d="M2.5 26.25C1.8125 26.25 1.22417 26.0054 0.735 25.5163C0.245 25.0263 0 24.4375 0 23.75V6.25C0 5.5625 0.245 4.97375 0.735 4.48375C1.22417 3.99458 1.8125 3.75 2.5 3.75H27.5C28.1875 3.75 28.7763 3.99458 29.2663 4.48375C29.7554 4.97375 30 5.5625 30 6.25V23.75C30 24.4375 29.7554 25.0263 29.2663 25.5163C28.7763 26.0054 28.1875 26.25 27.5 26.25H2.5ZM19.875 23.75H27.5V6.25H2.5V23.75H2.625C3.5 22.1875 4.70833 20.9633 6.25 20.0775C7.79167 19.1925 9.45833 18.75 11.25 18.75C13.0417 18.75 14.7083 19.1925 16.25 20.0775C17.7917 20.9633 19 22.1875 19.875 23.75ZM11.25 17.5C12.2917 17.5 13.1771 17.1354 13.9062 16.4062C14.6354 15.6771 15 14.7917 15 13.75C15 12.7083 14.6354 11.8229 13.9062 11.0938C13.1771 10.3646 12.2917 10 11.25 10C10.2083 10 9.32292 10.3646 8.59375 11.0938C7.86458 11.8229 7.5 12.7083 7.5 13.75C7.5 14.7917 7.86458 15.6771 8.59375 16.4062C9.32292 17.1354 10.2083 17.5 11.25 17.5ZM18.75 13.75H25C25.3542 13.75 25.6508 13.63 25.89 13.39C26.13 13.1508 26.25 12.8542 26.25 12.5V8.75C26.25 8.39583 26.13 8.09875 25.89 7.85875C25.6508 7.61958 25.3542 7.5 25 7.5H18.75C18.3958 7.5 18.0992 7.61958 17.86 7.85875C17.62 8.09875 17.5 8.39583 17.5 8.75V12.5C17.5 12.8542 17.62 13.1508 17.86 13.39C18.0992 13.63 18.3958 13.75 18.75 13.75ZM5.6875 23.75H16.8125C16.1042 22.9583 15.2658 22.3438 14.2975 21.9062C13.3283 21.4688 12.3125 21.25 11.25 21.25C10.1875 21.25 9.17708 21.4688 8.21875 21.9062C7.26042 22.3438 6.41667 22.9583 5.6875 23.75ZM11.25 15C10.8958 15 10.5992 14.88 10.36 14.64C10.12 14.4008 10 14.1042 10 13.75C10 13.3958 10.12 13.0987 10.36 12.8587C10.5992 12.6196 10.8958 12.5 11.25 12.5C11.6042 12.5 11.9013 12.6196 12.1413 12.8587C12.3804 13.0987 12.5 13.3958 12.5 13.75C12.5 14.1042 12.3804 14.4008 12.1413 14.64C11.9013 14.88 11.6042 15 11.25 15ZM21.875 12.1875L18.75 10V8.75L21.875 10.9375L25 8.75V10L21.875 12.1875Z" fill="white"/>
</svg>
