<svg width="30" height="30" viewBox="0 0 30 30" fill="none" xmlns="http://www.w3.org/2000/svg">
<path d="M3.75 5C2.375 5 1.25 6.125 1.25 7.5V22.5C1.25 23.875 2.375 25 3.75 25H16.875C16.535 24.2052 16.324 23.3613 16.25 22.5H3.75V10L13.75 16.25L23.75 10V13.75C23.9583 13.742 24.1667 13.742 24.375 13.75C25.0066 13.7519 25.6359 13.8274 26.25 13.975V7.5C26.25 6.125 25.125 5 23.75 5H3.75ZM3.75 7.5H23.75L13.75 13.75L3.75 7.5ZM23.75 15L20.9375 17.8125L23.75 20.625V18.75C24.5788 18.75 25.3737 19.0792 25.9597 19.6653C26.5458 20.2513 26.875 21.0462 26.875 21.875C26.875 22.375 26.7625 22.85 26.55 23.275L27.9125 24.6375C28.4375 23.85 28.75 22.9 28.75 21.875C28.75 19.1125 26.5125 16.875 23.75 16.875V15ZM19.5875 19.1125C19.0625 19.9 18.75 20.85 18.75 21.875C18.75 24.6375 20.9875 26.875 23.75 26.875V28.75L26.5625 25.9375L23.75 23.125V25C22.9212 25 22.1263 24.6708 21.5403 24.0847C20.9542 23.4987 20.625 22.7038 20.625 21.875C20.625 21.375 20.7375 20.9 20.95 20.475L19.5875 19.1125Z" fill="white"/>
</svg>
