<svg width="35" height="40" viewBox="0 0 35 40" fill="none" xmlns="http://www.w3.org/2000/svg">
<path d="M21.3044 29.7697C22.9787 29.5096 23.89 29.4925 23.89 29.4925C24.5378 29.4804 25.0666 28.9728 25.0666 28.3653V26.7257C25.0666 26.1182 24.5395 25.5792 23.8941 25.5284C23.8941 25.5284 22.3875 25.4085 21.3391 25.1716L21.252 25.1517C21.165 25.1142 21.0232 24.9076 20.9391 24.6917C20.8538 24.4763 20.642 23.7026 20.7061 23.4259L20.9102 23.1614C21.8945 21.8829 22.4957 21.3025 22.4957 21.3025C22.7126 21.0914 22.8324 20.8087 22.8291 20.5154C22.8258 20.2222 22.6997 19.9419 22.4781 19.7352L21.212 18.5638C20.9854 18.3583 20.6837 18.242 20.3686 18.2387C20.0536 18.2354 19.7491 18.3454 19.5177 18.5461C19.5177 18.5461 18.8029 19.1785 17.4186 19.8887L17.1015 20.0511C16.7162 20.0698 16.2091 20.0069 15.9743 19.9102C15.7396 19.8136 15.0777 19.5601 15.0589 19.4955L15.0471 19.4314C14.7671 17.8834 14.7442 16.7082 14.7442 16.7082C14.7324 16.1007 14.1929 15.6037 13.5458 15.6037H11.7379C11.0908 15.6037 10.5513 16.1007 10.5389 16.7082C10.5389 16.7082 10.513 17.9922 10.0753 19.401L10.0477 19.4905C9.99887 19.5805 9.82414 19.6982 9.65882 19.7528C9.49351 19.807 8.71047 19.9655 8.27395 19.9616L7.9139 19.7766C6.52784 19.068 5.81364 18.4357 5.81364 18.4357C5.5823 18.2349 5.27789 18.1248 4.96284 18.128C4.6478 18.1312 4.34599 18.2474 4.11931 18.4528L2.85385 19.6236C2.63235 19.8302 2.50628 20.1104 2.50287 20.4035C2.49946 20.6966 2.61897 20.9792 2.83562 21.1904C2.83562 21.1904 3.43745 21.7719 4.42228 23.0504L4.60701 23.2901C4.67526 23.5419 4.63231 23.939 4.51112 24.172C4.38993 24.4056 4.04871 25.0932 3.93987 25.1435L3.83162 25.1722C2.30908 25.577 1.31248 25.598 1.31248 25.598C0.665342 25.6107 0.135864 26.1187 0.135864 26.7262V28.3659C0.135864 28.9734 0.665342 29.4809 1.31248 29.4931C1.31248 29.4931 2.19142 29.5102 3.86574 29.7703L3.9487 29.783C4.03224 29.804 4.17519 30.0144 4.26697 30.2508C4.35875 30.4877 4.59878 31.3238 4.53877 31.6143L4.32404 31.8932C3.33921 33.17 2.73737 33.7515 2.73737 33.7515C2.52069 33.9628 2.40116 34.2455 2.40457 34.5387C2.40798 34.8319 2.53406 35.1121 2.7556 35.3189L4.02165 36.4902C4.48288 36.916 5.24533 36.9243 5.71598 36.5073C5.71598 36.5073 6.43018 35.8744 7.81624 35.1653L8.17099 34.9836C8.60105 34.977 9.08816 35.0256 9.2523 35.0913C9.41703 35.1565 9.92592 35.4083 9.99946 35.5348L10.0395 35.6629C10.4772 37.0723 10.4983 37.9763 10.4983 37.9763C10.5075 38.2708 10.6379 38.5504 10.8622 38.7564C11.0864 38.9624 11.3871 39.0787 11.7008 39.0809H13.5087C14.1559 39.0809 14.6971 38.5844 14.7112 37.9763C14.7112 37.9763 14.7301 37.1794 15.0107 35.6309L15.0271 35.5414C15.0548 35.4536 15.2678 35.3222 15.5001 35.2498C15.7331 35.1775 16.6638 34.9571 17.078 34.9693L17.4186 35.1432C18.8029 35.8529 19.5177 36.4863 19.5177 36.4863C19.9889 36.9033 20.7508 36.895 21.212 36.4687L22.4781 35.2968C22.9393 34.8704 22.947 34.1646 22.4957 33.7295C22.4957 33.7295 21.8945 33.149 20.9102 31.8705L20.7014 31.5988C20.639 31.315 20.6773 30.8964 20.7867 30.6666C20.8961 30.438 21.1779 29.7957 21.242 29.7797L21.3044 29.7697ZM12.6151 32.3924C9.71471 32.3924 7.36207 30.2176 7.36207 27.5336C7.36207 24.8496 9.71471 22.676 12.6151 22.676C15.5166 22.676 17.8681 24.8502 17.8681 27.5336C17.8681 30.2171 15.5166 32.3924 12.6151 32.3924Z" fill="url(#paint0_linear_60_6)"/>
<path d="M21.3044 29.7697C22.9787 29.5096 23.89 29.4925 23.89 29.4925C24.5378 29.4804 25.0666 28.9728 25.0666 28.3653V26.7257C25.0666 26.1182 24.5395 25.5792 23.8941 25.5284C23.8941 25.5284 22.3875 25.4085 21.3391 25.1716L21.252 25.1517C21.165 25.1142 21.0232 24.9076 20.9391 24.6917C20.8538 24.4763 20.642 23.7026 20.7061 23.4259L20.9102 23.1614C21.8945 21.8829 22.4957 21.3025 22.4957 21.3025C22.7126 21.0914 22.8324 20.8087 22.8291 20.5154C22.8258 20.2222 22.6997 19.9419 22.4781 19.7352L21.212 18.5638C20.9854 18.3583 20.6837 18.242 20.3686 18.2387C20.0536 18.2354 19.7491 18.3454 19.5177 18.5461C19.5177 18.5461 18.8029 19.1785 17.4186 19.8887L17.1015 20.0511C16.7162 20.0698 16.2091 20.0069 15.9743 19.9102C15.7396 19.8136 15.0777 19.5601 15.0589 19.4955L15.0471 19.4314C14.7671 17.8834 14.7442 16.7082 14.7442 16.7082C14.7324 16.1007 14.1929 15.6037 13.5458 15.6037H11.7379C11.0908 15.6037 10.5513 16.1007 10.5389 16.7082C10.5389 16.7082 10.513 17.9922 10.0753 19.401L10.0477 19.4905C9.99887 19.5805 9.82414 19.6982 9.65882 19.7528C9.49351 19.807 8.71047 19.9655 8.27395 19.9616L7.9139 19.7766C6.52784 19.068 5.81364 18.4357 5.81364 18.4357C5.5823 18.2349 5.27789 18.1248 4.96284 18.128C4.6478 18.1312 4.34599 18.2474 4.11931 18.4528L2.85385 19.6236C2.63235 19.8302 2.50628 20.1104 2.50287 20.4035C2.49946 20.6966 2.61897 20.9792 2.83562 21.1904C2.83562 21.1904 3.43745 21.7719 4.42228 23.0504L4.60701 23.2901C4.67526 23.5419 4.63231 23.939 4.51112 24.172C4.38993 24.4056 4.04871 25.0932 3.93987 25.1435L3.83162 25.1722C2.30908 25.577 1.31248 25.598 1.31248 25.598C0.665342 25.6107 0.135864 26.1187 0.135864 26.7262V28.3659C0.135864 28.9734 0.665342 29.4809 1.31248 29.4931C1.31248 29.4931 2.19142 29.5102 3.86574 29.7703L3.9487 29.783C4.03224 29.804 4.17519 30.0144 4.26697 30.2508C4.35875 30.4877 4.59878 31.3238 4.53877 31.6143L4.32404 31.8932C3.33921 33.17 2.73737 33.7515 2.73737 33.7515C2.52069 33.9628 2.40116 34.2455 2.40457 34.5387C2.40798 34.8319 2.53406 35.1121 2.7556 35.3189L4.02165 36.4902C4.48288 36.916 5.24533 36.9243 5.71598 36.5073C5.71598 36.5073 6.43018 35.8744 7.81624 35.1653L8.17099 34.9836C8.60105 34.977 9.08816 35.0256 9.2523 35.0913C9.41703 35.1565 9.92592 35.4083 9.99946 35.5348L10.0395 35.6629C10.4772 37.0723 10.4983 37.9763 10.4983 37.9763C10.5075 38.2708 10.6379 38.5504 10.8622 38.7564C11.0864 38.9624 11.3871 39.0787 11.7008 39.0809H13.5087C14.1559 39.0809 14.6971 38.5844 14.7112 37.9763C14.7112 37.9763 14.7301 37.1794 15.0107 35.6309L15.0271 35.5414C15.0548 35.4536 15.2678 35.3222 15.5001 35.2498C15.7331 35.1775 16.6638 34.9571 17.078 34.9693L17.4186 35.1432C18.8029 35.8529 19.5177 36.4863 19.5177 36.4863C19.9889 36.9033 20.7508 36.895 21.212 36.4687L22.4781 35.2968C22.9393 34.8704 22.947 34.1646 22.4957 33.7295C22.4957 33.7295 21.8945 33.149 20.9102 31.8705L20.7014 31.5988C20.639 31.315 20.6773 30.8964 20.7867 30.6666C20.8961 30.438 21.1779 29.7957 21.242 29.7797L21.3044 29.7697ZM12.6151 32.3924C9.71471 32.3924 7.36207 30.2176 7.36207 27.5336C7.36207 24.8496 9.71471 22.676 12.6151 22.676C15.5166 22.676 17.8681 24.8502 17.8681 27.5336C17.8681 30.2171 15.5166 32.3924 12.6151 32.3924Z" fill="url(#paint1_linear_60_6)"/>
<path d="M31.6734 12.4387C33.0347 12.2278 33.556 12.2173 33.556 12.2173C34.2037 12.2046 34.7326 11.6976 34.7326 11.0896V10.1695C34.7326 9.56201 34.2055 9.023 33.5601 8.9722C33.5601 8.9722 32.5541 8.89212 31.7016 8.69993L31.6304 8.68391C31.5598 8.65299 31.4457 8.48455 31.3763 8.30948C31.3069 8.13442 31.1345 7.50429 31.1863 7.28007L31.351 7.06579C32.1517 6.02588 32.4882 5.70115 32.4882 5.70115C32.7052 5.49023 32.825 5.20759 32.8217 4.91437C32.8184 4.62116 32.6922 4.34096 32.4705 4.13439L31.754 3.47168C31.5274 3.26619 31.2256 3.14988 30.9106 3.14659C30.5955 3.14331 30.2911 3.2533 30.0596 3.45401C30.0596 3.45401 29.6384 3.82623 28.5124 4.40389L28.2547 4.53533C27.9423 4.5508 27.5317 4.49999 27.3428 4.42212C27.154 4.34425 26.6157 4.13991 26.5945 4.08855L26.5839 4.03167C26.3562 2.77307 26.3421 2.02365 26.3421 2.02365C26.3304 1.41616 25.7909 0.919128 25.1443 0.919128H24.1136C23.4665 0.919128 22.9264 1.41616 22.9146 2.02365C22.9146 2.02365 22.8976 2.86198 22.5416 4.00737L22.5193 4.07972C22.4799 4.15261 22.3375 4.24871 22.2034 4.29234C22.0686 4.33652 21.4321 4.46519 21.0773 4.46243L20.7838 4.31222C19.6566 3.73566 19.2365 3.36343 19.2365 3.36343C19.0052 3.16265 18.7008 3.05256 18.3857 3.05575C18.0707 3.05893 17.7689 3.17514 17.5422 3.38056L16.8256 4.04327C16.6041 4.25 16.478 4.5302 16.4746 4.82342C16.4712 5.11664 16.5907 5.39936 16.8074 5.61058C16.8074 5.61058 17.1433 5.93476 17.9446 6.97412L18.0946 7.16906C18.1505 7.37395 18.1158 7.69647 18.017 7.88645C17.9187 8.07643 17.6404 8.63532 17.5522 8.67618L17.4639 8.69938C16.2261 9.02963 15.6355 9.04123 15.6355 9.04123C14.9883 9.05393 14.4589 9.56146 14.4589 10.1689V11.0896C14.4589 11.697 14.9883 12.2046 15.6355 12.2173C15.6355 12.2173 16.1302 12.2272 17.4916 12.4382L17.5651 12.4498C17.6322 12.4735 17.7475 12.6486 17.8216 12.8386C17.8958 13.0286 18.0887 13.7029 18.0393 13.9387L17.8652 14.1646C17.0639 15.2034 16.728 15.5281 16.728 15.5281C16.5113 15.7393 16.3918 16.022 16.3952 16.3152C16.3986 16.6085 16.5247 16.8887 16.7462 17.0954L17.4628 17.7581C17.6894 17.9635 17.9911 18.0797 18.306 18.0829C18.621 18.086 18.9253 17.976 19.1565 17.7752C19.1565 17.7752 19.5772 17.403 20.7049 16.8264L20.9932 16.6784C21.3427 16.6729 21.7386 16.7127 21.8721 16.7657C22.0057 16.8187 22.4199 17.0236 22.4799 17.1263L22.5122 17.2307C22.8682 18.3766 22.8805 18.9068 22.8805 18.9068C22.8946 19.5143 23.4359 20.0113 24.083 20.0113H25.1143C25.7615 20.0113 26.3027 19.5143 26.3162 18.9068C26.3162 18.9068 26.3268 18.4639 26.5551 17.2053L26.5692 17.1269C26.5992 17.0562 26.7739 16.9502 26.9581 16.8911C27.1422 16.8325 27.8905 16.6564 28.2312 16.6646L28.5124 16.8082C29.6384 17.3848 30.0596 17.7581 30.0596 17.7581C30.291 17.9589 30.5954 18.069 30.9104 18.0658C31.2255 18.0626 31.5273 17.9464 31.754 17.741L32.4705 17.0772C32.6922 16.8706 32.8184 16.5904 32.8217 16.2972C32.825 16.004 32.7052 15.7213 32.4882 15.5104C32.4882 15.5104 32.1523 15.1862 31.351 14.1469L31.1763 13.9199C31.128 13.6835 31.161 13.3428 31.2498 13.1616C31.3386 12.9805 31.5651 12.4663 31.6163 12.4476L31.6734 12.4387ZM24.6066 14.5716C22.2487 14.5716 20.3355 12.8032 20.3355 10.6207C20.3355 8.43816 22.2487 6.66982 24.6066 6.66982C26.9675 6.66982 28.8789 8.43816 28.8789 10.6207C28.8789 12.8032 26.9675 14.5716 24.6066 14.5716Z" fill="url(#paint2_linear_60_6)"/>
<path d="M31.6734 12.4387C33.0347 12.2278 33.556 12.2173 33.556 12.2173C34.2037 12.2046 34.7326 11.6976 34.7326 11.0896V10.1695C34.7326 9.56201 34.2055 9.023 33.5601 8.9722C33.5601 8.9722 32.5541 8.89212 31.7016 8.69993L31.6304 8.68391C31.5598 8.65299 31.4457 8.48455 31.3763 8.30948C31.3069 8.13442 31.1345 7.50429 31.1863 7.28007L31.351 7.06579C32.1517 6.02588 32.4882 5.70115 32.4882 5.70115C32.7052 5.49023 32.825 5.20759 32.8217 4.91437C32.8184 4.62116 32.6922 4.34096 32.4705 4.13439L31.754 3.47168C31.5274 3.26619 31.2256 3.14988 30.9106 3.14659C30.5955 3.14331 30.2911 3.2533 30.0596 3.45401C30.0596 3.45401 29.6384 3.82623 28.5124 4.40389L28.2547 4.53533C27.9423 4.5508 27.5317 4.49999 27.3428 4.42212C27.154 4.34425 26.6157 4.13991 26.5945 4.08855L26.5839 4.03167C26.3562 2.77307 26.3421 2.02365 26.3421 2.02365C26.3304 1.41616 25.7909 0.919128 25.1443 0.919128H24.1136C23.4665 0.919128 22.9264 1.41616 22.9146 2.02365C22.9146 2.02365 22.8976 2.86198 22.5416 4.00737L22.5193 4.07972C22.4799 4.15261 22.3375 4.24871 22.2034 4.29234C22.0686 4.33652 21.4321 4.46519 21.0773 4.46243L20.7838 4.31222C19.6566 3.73566 19.2365 3.36343 19.2365 3.36343C19.0052 3.16265 18.7008 3.05256 18.3857 3.05575C18.0707 3.05893 17.7689 3.17514 17.5422 3.38056L16.8256 4.04327C16.6041 4.25 16.478 4.5302 16.4746 4.82342C16.4712 5.11664 16.5907 5.39936 16.8074 5.61058C16.8074 5.61058 17.1433 5.93476 17.9446 6.97412L18.0946 7.16906C18.1505 7.37395 18.1158 7.69647 18.017 7.88645C17.9187 8.07643 17.6404 8.63532 17.5522 8.67618L17.4639 8.69938C16.2261 9.02963 15.6355 9.04123 15.6355 9.04123C14.9883 9.05393 14.4589 9.56146 14.4589 10.1689V11.0896C14.4589 11.697 14.9883 12.2046 15.6355 12.2173C15.6355 12.2173 16.1302 12.2272 17.4916 12.4382L17.5651 12.4498C17.6322 12.4735 17.7475 12.6486 17.8216 12.8386C17.8958 13.0286 18.0887 13.7029 18.0393 13.9387L17.8652 14.1646C17.0639 15.2034 16.728 15.5281 16.728 15.5281C16.5113 15.7393 16.3918 16.022 16.3952 16.3152C16.3986 16.6085 16.5247 16.8887 16.7462 17.0954L17.4628 17.7581C17.6894 17.9635 17.9911 18.0797 18.306 18.0829C18.621 18.086 18.9253 17.976 19.1565 17.7752C19.1565 17.7752 19.5772 17.403 20.7049 16.8264L20.9932 16.6784C21.3427 16.6729 21.7386 16.7127 21.8721 16.7657C22.0057 16.8187 22.4199 17.0236 22.4799 17.1263L22.5122 17.2307C22.8682 18.3766 22.8805 18.9068 22.8805 18.9068C22.8946 19.5143 23.4359 20.0113 24.083 20.0113H25.1143C25.7615 20.0113 26.3027 19.5143 26.3162 18.9068C26.3162 18.9068 26.3268 18.4639 26.5551 17.2053L26.5692 17.1269C26.5992 17.0562 26.7739 16.9502 26.9581 16.8911C27.1422 16.8325 27.8905 16.6564 28.2312 16.6646L28.5124 16.8082C29.6384 17.3848 30.0596 17.7581 30.0596 17.7581C30.291 17.9589 30.5954 18.069 30.9104 18.0658C31.2255 18.0626 31.5273 17.9464 31.754 17.741L32.4705 17.0772C32.6922 16.8706 32.8184 16.5904 32.8217 16.2972C32.825 16.004 32.7052 15.7213 32.4882 15.5104C32.4882 15.5104 32.1523 15.1862 31.351 14.1469L31.1763 13.9199C31.128 13.6835 31.161 13.3428 31.2498 13.1616C31.3386 12.9805 31.5651 12.4663 31.6163 12.4476L31.6734 12.4387ZM24.6066 14.5716C22.2487 14.5716 20.3355 12.8032 20.3355 10.6207C20.3355 8.43816 22.2487 6.66982 24.6066 6.66982C26.9675 6.66982 28.8789 8.43816 28.8789 10.6207C28.8789 12.8032 26.9675 14.5716 24.6066 14.5716Z" fill="url(#paint3_linear_60_6)"/>
<defs>
<linearGradient id="paint0_linear_60_6" x1="4.68299" y1="21.225" x2="25.5595" y2="32.1905" gradientUnits="userSpaceOnUse">
<stop stop-color="#0077C9"/>
<stop offset="1" stop-color="#00B5E2"/>
</linearGradient>
<linearGradient id="paint1_linear_60_6" x1="4.68299" y1="21.225" x2="25.5595" y2="32.1905" gradientUnits="userSpaceOnUse">
<stop stop-color="#0077C9"/>
<stop offset="1" stop-color="#00B5E2"/>
</linearGradient>
<linearGradient id="paint2_linear_60_6" x1="18.1566" y1="5.4905" x2="35.1336" y2="14.4075" gradientUnits="userSpaceOnUse">
<stop stop-color="#0077C9"/>
<stop offset="1" stop-color="#00B5E2"/>
</linearGradient>
<linearGradient id="paint3_linear_60_6" x1="18.1566" y1="5.4905" x2="35.1336" y2="14.4075" gradientUnits="userSpaceOnUse">
<stop stop-color="#0077C9"/>
<stop offset="1" stop-color="#00B5E2"/>
</linearGradient>
</defs>
</svg>
