<svg width="91" height="38" viewBox="0 0 91 38" fill="none" xmlns="http://www.w3.org/2000/svg">
<path fill-rule="evenodd" clip-rule="evenodd" d="M14.8341 12.7544L14.9606 25.8386L0.786228 25.9757L0.659668 12.8915L14.8341 12.7544Z" fill="#646464"/>
<path d="M35.9551 29.3698C34.5421 29.3835 33.3067 29.1628 32.249 28.7079C31.2001 28.2528 30.3727 27.5542 29.7667 26.6121C29.1694 25.6612 28.8374 24.4531 28.7705 22.988L28.7961 22.9087L32.7324 22.8706C32.8234 24.1161 33.1081 24.9692 33.5866 25.4298C34.0649 25.8815 34.6815 26.1038 35.4363 26.0965C35.9014 26.092 36.3217 25.987 36.6972 25.7815C37.0814 25.5759 37.3899 25.2613 37.6228 24.8377C37.8557 24.4142 37.969 23.8777 37.9627 23.2282L37.862 12.8148L35.2646 12.4318L35.2404 9.93052L44.0476 9.84533L44.0718 12.3466L42.0484 12.7744L42.1491 23.1877C42.1613 24.4427 41.9261 25.5334 41.4435 26.4597C40.9696 27.3771 40.2699 28.0905 39.3445 28.5997C38.4189 29.1002 37.2891 29.3569 35.9551 29.3698ZM45.0098 29.0057L44.9857 26.5176L46.996 26.09L46.8667 12.7277L44.8486 12.3391L44.8244 9.83781L46.8386 9.81833L53.184 9.75695L58.2466 22.716L58.3256 22.7152L63.0049 9.66196L71.3119 9.58161L71.3361 12.0829L69.3127 12.5106L69.4419 25.8729L71.4733 26.2614L71.4973 28.7495L63.2562 28.8293L63.2321 26.3411L65.3345 25.9126L65.3043 22.7926L65.298 13.9714L65.2189 13.959L59.7794 28.7312L56.5277 28.7627L50.6995 14.2443L50.6075 14.2583L50.963 22.431L50.9981 26.0513L53.24 26.4378L53.2641 28.9259L45.0098 29.0057ZM70.7601 28.7567L70.736 26.2685L72.1033 26.0578L77.8548 9.51832L82.2913 9.47541L88.3486 25.9007L89.7065 26.085L89.7306 28.5732L82.9112 28.6391L82.8871 26.151L84.175 25.9015L83.428 23.5389L76.9641 23.6014L76.2893 25.9778L77.5817 26.2023L77.6058 28.6905L70.7601 28.7567ZM77.8827 20.5643L82.4508 20.5202L80.337 14.3262L80.1336 13.7094L80.0546 13.7102L79.8504 14.3836L77.8827 20.5643Z" fill="#646464"/>
</svg>
