<svg width="30" height="30" viewBox="0 0 30 30" fill="none" xmlns="http://www.w3.org/2000/svg">
<path d="M20.1562 16.4062L25.3125 11.25ZM13.5938 12.6562L17.3438 16.4062ZM4.6875 18.75L10.7812 12.6562Z" fill="lightBlue"/>
<path d="M20.1562 16.4062L25.3125 11.25M13.5938 12.6562L17.3438 16.4062M4.6875 18.75L10.7812 12.6562" stroke="lightBlue" stroke-width="3.5625" stroke-linecap="round" stroke-linejoin="round"/>
<path d="M26.7188 11.25C27.4954 11.25 28.125 10.6204 28.125 9.84375C28.125 9.0671 27.4954 8.4375 26.7188 8.4375C25.9421 8.4375 25.3125 9.0671 25.3125 9.84375C25.3125 10.6204 25.9421 11.25 26.7188 11.25Z" fill="lightBlue" stroke="lightBlue" stroke-width="3.5625" stroke-linecap="round" stroke-linejoin="round"/>
<path d="M18.75 19.2188C19.5267 19.2188 20.1562 18.5892 20.1562 17.8125C20.1562 17.0358 19.5267 16.4062 18.75 16.4062C17.9733 16.4062 17.3438 17.0358 17.3438 17.8125C17.3438 18.5892 17.9733 19.2188 18.75 19.2188Z" stroke="lightBlue" stroke-width="3.5625" stroke-linecap="round" stroke-linejoin="round"/>
<path d="M12.1875 12.6562C12.9642 12.6562 13.5938 12.0267 13.5938 11.25C13.5938 10.4733 12.9642 9.84375 12.1875 9.84375C11.4108 9.84375 10.7812 10.4733 10.7812 11.25C10.7812 12.0267 11.4108 12.6562 12.1875 12.6562Z" stroke="lightBlue" stroke-width="3.5625" stroke-linecap="round" stroke-linejoin="round"/>
<path d="M3.28125 21.5625C4.0579 21.5625 4.6875 20.9329 4.6875 20.1562C4.6875 19.3796 4.0579 18.75 3.28125 18.75C2.5046 18.75 1.875 19.3796 1.875 20.1562C1.875 20.9329 2.5046 21.5625 3.28125 21.5625Z" stroke="lightBlue" stroke-width="3.5625" stroke-linecap="round" stroke-linejoin="round"/>
</svg>
