<svg width="156" height="22" viewBox="0 0 156 22" fill="none" xmlns="http://www.w3.org/2000/svg">
<rect width="16.8235" height="14.8824" fill="#646464"/>
<rect x="8.41187" y="7.11768" width="16.8235" height="14.8824" fill="#646464"/>
<path d="M40.6182 13.625C40.6182 13.3594 40.5765 13.125 40.4932 12.9219C40.415 12.7135 40.2744 12.526 40.0713 12.3594C39.8734 12.1927 39.5973 12.0339 39.2432 11.8828C38.8942 11.7318 38.4515 11.5781 37.915 11.4219C37.3525 11.2552 36.8447 11.0703 36.3916 10.8672C35.9385 10.6589 35.5505 10.4219 35.2275 10.1562C34.9046 9.89062 34.6572 9.58594 34.4854 9.24219C34.3135 8.89844 34.2275 8.50521 34.2275 8.0625C34.2275 7.61979 34.3187 7.21094 34.501 6.83594C34.6833 6.46094 34.9437 6.13542 35.2822 5.85938C35.626 5.57812 36.0348 5.35938 36.5088 5.20312C36.9827 5.04688 37.5114 4.96875 38.0947 4.96875C38.9489 4.96875 39.6729 5.13281 40.2666 5.46094C40.8656 5.78385 41.3213 6.20833 41.6338 6.73438C41.9463 7.25521 42.1025 7.8125 42.1025 8.40625H40.6025C40.6025 7.97917 40.5114 7.60156 40.3291 7.27344C40.1468 6.9401 39.8708 6.67969 39.501 6.49219C39.1312 6.29948 38.6624 6.20312 38.0947 6.20312C37.5583 6.20312 37.1156 6.28385 36.7666 6.44531C36.4176 6.60677 36.1572 6.82552 35.9854 7.10156C35.8187 7.3776 35.7354 7.69271 35.7354 8.04688C35.7354 8.28646 35.7848 8.50521 35.8838 8.70312C35.988 8.89583 36.1468 9.07552 36.3604 9.24219C36.5791 9.40885 36.8551 9.5625 37.1885 9.70312C37.527 9.84375 37.9307 9.97917 38.3994 10.1094C39.0452 10.2917 39.6025 10.4948 40.0713 10.7188C40.54 10.9427 40.9255 11.1953 41.2275 11.4766C41.5348 11.7526 41.7614 12.0677 41.9072 12.4219C42.0583 12.7708 42.1338 13.1667 42.1338 13.6094C42.1338 14.0729 42.04 14.4922 41.8525 14.8672C41.665 15.2422 41.3968 15.5625 41.0479 15.8281C40.6989 16.0938 40.2796 16.2995 39.79 16.4453C39.3057 16.5859 38.764 16.6562 38.165 16.6562C37.639 16.6562 37.1208 16.5833 36.6104 16.4375C36.1051 16.2917 35.6442 16.0729 35.2275 15.7812C34.8161 15.4896 34.4854 15.1302 34.2354 14.7031C33.9906 14.2708 33.8682 13.7708 33.8682 13.2031H35.3682C35.3682 13.5938 35.4437 13.9297 35.5947 14.2109C35.7458 14.487 35.9515 14.7161 36.2119 14.8984C36.4775 15.0807 36.777 15.2161 37.1104 15.3047C37.4489 15.388 37.8005 15.4297 38.165 15.4297C38.6911 15.4297 39.1364 15.3568 39.501 15.2109C39.8656 15.0651 40.1416 14.8568 40.3291 14.5859C40.5218 14.3151 40.6182 13.9948 40.6182 13.625ZM45.2744 9.72656V16.5H43.8213V8.04688H45.1963L45.2744 9.72656ZM44.9775 11.9531L44.3057 11.9297C44.3109 11.3516 44.3864 10.8177 44.5322 10.3281C44.6781 9.83333 44.8942 9.40365 45.1807 9.03906C45.4671 8.67448 45.8239 8.39323 46.251 8.19531C46.6781 7.99219 47.1729 7.89062 47.7354 7.89062C48.1312 7.89062 48.4958 7.94792 48.8291 8.0625C49.1624 8.17188 49.4515 8.34635 49.6963 8.58594C49.9411 8.82552 50.1312 9.13281 50.2666 9.50781C50.402 9.88281 50.4697 10.3359 50.4697 10.8672V16.5H49.0244V10.9375C49.0244 10.4948 48.9489 10.1406 48.7979 9.875C48.652 9.60938 48.4437 9.41667 48.1729 9.29688C47.902 9.17188 47.5843 9.10938 47.2197 9.10938C46.7926 9.10938 46.4359 9.1849 46.1494 9.33594C45.863 9.48698 45.6338 9.69531 45.4619 9.96094C45.29 10.2266 45.165 10.5312 45.0869 10.875C45.014 11.2135 44.9775 11.5729 44.9775 11.9531ZM50.4541 11.1562L49.4854 11.4531C49.4906 10.9896 49.5661 10.5443 49.7119 10.1172C49.863 9.6901 50.0791 9.3099 50.3604 8.97656C50.6468 8.64323 50.9984 8.38021 51.415 8.1875C51.8317 7.98958 52.3083 7.89062 52.8447 7.89062C53.2979 7.89062 53.6989 7.95052 54.0479 8.07031C54.402 8.1901 54.6989 8.375 54.9385 8.625C55.1833 8.86979 55.3682 9.1849 55.4932 9.57031C55.6182 9.95573 55.6807 10.4141 55.6807 10.9453V16.5H54.2275V10.9297C54.2275 10.4557 54.152 10.0885 54.001 9.82812C53.8551 9.5625 53.6468 9.3776 53.376 9.27344C53.1104 9.16406 52.7926 9.10938 52.4229 9.10938C52.1051 9.10938 51.8239 9.16406 51.5791 9.27344C51.3343 9.38281 51.1286 9.53385 50.9619 9.72656C50.7952 9.91406 50.6676 10.1302 50.5791 10.375C50.4958 10.6198 50.4541 10.8802 50.4541 11.1562ZM59.4385 8.04688V16.5H57.9854V8.04688H59.4385ZM57.876 5.80469C57.876 5.57031 57.9463 5.3724 58.0869 5.21094C58.2327 5.04948 58.4463 4.96875 58.7275 4.96875C59.0036 4.96875 59.2145 5.04948 59.3604 5.21094C59.5114 5.3724 59.5869 5.57031 59.5869 5.80469C59.5869 6.02865 59.5114 6.22135 59.3604 6.38281C59.2145 6.53906 59.0036 6.61719 58.7275 6.61719C58.4463 6.61719 58.2327 6.53906 58.0869 6.38281C57.9463 6.22135 57.876 6.02865 57.876 5.80469ZM65.2979 8.04688V9.15625H60.7275V8.04688H65.2979ZM62.2744 5.99219H63.7197V14.4062C63.7197 14.6927 63.764 14.9089 63.8525 15.0547C63.9411 15.2005 64.0557 15.2969 64.1963 15.3438C64.3369 15.3906 64.488 15.4141 64.6494 15.4141C64.7692 15.4141 64.8942 15.4036 65.0244 15.3828C65.1598 15.3568 65.2614 15.3359 65.3291 15.3203L65.3369 16.5C65.2223 16.5365 65.0713 16.5703 64.8838 16.6016C64.7015 16.638 64.4801 16.6562 64.2197 16.6562C63.8656 16.6562 63.54 16.5859 63.2432 16.4453C62.9463 16.3047 62.7093 16.0703 62.5322 15.7422C62.3604 15.4089 62.2744 14.9609 62.2744 14.3984V5.99219ZM68.4385 4.5V16.5H66.9932V4.5H68.4385ZM68.0947 11.9531L67.4932 11.9297C67.4984 11.3516 67.5843 10.8177 67.751 10.3281C67.9176 9.83333 68.152 9.40365 68.4541 9.03906C68.7562 8.67448 69.1156 8.39323 69.5322 8.19531C69.9541 7.99219 70.4202 7.89062 70.9307 7.89062C71.3473 7.89062 71.7223 7.94792 72.0557 8.0625C72.389 8.17188 72.6729 8.34896 72.9072 8.59375C73.1468 8.83854 73.3291 9.15625 73.4541 9.54688C73.5791 9.93229 73.6416 10.4036 73.6416 10.9609V16.5H72.1885V10.9453C72.1885 10.5026 72.1234 10.1484 71.9932 9.88281C71.863 9.61198 71.6729 9.41667 71.4229 9.29688C71.1729 9.17188 70.8656 9.10938 70.501 9.10938C70.1416 9.10938 69.8135 9.1849 69.5166 9.33594C69.2249 9.48698 68.9723 9.69531 68.7588 9.96094C68.5505 10.2266 68.3864 10.5312 68.2666 10.875C68.152 11.2135 68.0947 11.5729 68.0947 11.9531ZM86.8604 12.8828H88.3604C88.2822 13.6016 88.0765 14.2448 87.7432 14.8125C87.4098 15.3802 86.9385 15.8307 86.3291 16.1641C85.7197 16.4922 84.9593 16.6562 84.0479 16.6562C83.3812 16.6562 82.7744 16.5312 82.2275 16.2812C81.6859 16.0312 81.2197 15.6771 80.8291 15.2188C80.4385 14.7552 80.1364 14.2005 79.9229 13.5547C79.7145 12.9036 79.6104 12.1797 79.6104 11.3828V10.25C79.6104 9.45312 79.7145 8.73177 79.9229 8.08594C80.1364 7.4349 80.4411 6.8776 80.8369 6.41406C81.238 5.95052 81.7197 5.59375 82.2822 5.34375C82.8447 5.09375 83.4775 4.96875 84.1807 4.96875C85.04 4.96875 85.7666 5.13021 86.3604 5.45312C86.9541 5.77604 87.415 6.22396 87.7432 6.79688C88.0765 7.36458 88.2822 8.02344 88.3604 8.77344H86.8604C86.7874 8.24219 86.652 7.78646 86.4541 7.40625C86.2562 7.02083 85.9749 6.72396 85.6104 6.51562C85.2458 6.30729 84.7692 6.20312 84.1807 6.20312C83.6755 6.20312 83.2301 6.29948 82.8447 6.49219C82.4645 6.6849 82.1442 6.95833 81.8838 7.3125C81.6286 7.66667 81.4359 8.09115 81.3057 8.58594C81.1755 9.08073 81.1104 9.63021 81.1104 10.2344V11.3828C81.1104 11.9401 81.1676 12.4635 81.2822 12.9531C81.402 13.4427 81.5817 13.8724 81.8213 14.2422C82.0609 14.612 82.3656 14.9036 82.7354 15.1172C83.1051 15.3255 83.5426 15.4297 84.0479 15.4297C84.6885 15.4297 85.1989 15.3281 85.5791 15.125C85.9593 14.9219 86.2458 14.6302 86.4385 14.25C86.6364 13.8698 86.777 13.4141 86.8604 12.8828ZM89.8135 12.3672V12.1875C89.8135 11.5781 89.902 11.013 90.0791 10.4922C90.2562 9.96615 90.5114 9.51042 90.8447 9.125C91.1781 8.73438 91.5817 8.43229 92.0557 8.21875C92.5296 8 93.0609 7.89062 93.6494 7.89062C94.2432 7.89062 94.777 8 95.251 8.21875C95.7301 8.43229 96.1364 8.73438 96.4697 9.125C96.8083 9.51042 97.0661 9.96615 97.2432 10.4922C97.4202 11.013 97.5088 11.5781 97.5088 12.1875V12.3672C97.5088 12.9766 97.4202 13.5417 97.2432 14.0625C97.0661 14.5833 96.8083 15.0391 96.4697 15.4297C96.1364 15.8151 95.7327 16.1172 95.2588 16.3359C94.79 16.5495 94.2588 16.6562 93.665 16.6562C93.0713 16.6562 92.5374 16.5495 92.0635 16.3359C91.5895 16.1172 91.1833 15.8151 90.8447 15.4297C90.5114 15.0391 90.2562 14.5833 90.0791 14.0625C89.902 13.5417 89.8135 12.9766 89.8135 12.3672ZM91.2588 12.1875V12.3672C91.2588 12.7891 91.3083 13.1875 91.4072 13.5625C91.5062 13.9323 91.6546 14.2604 91.8525 14.5469C92.0557 14.8333 92.3083 15.0599 92.6104 15.2266C92.9124 15.388 93.264 15.4688 93.665 15.4688C94.0609 15.4688 94.4072 15.388 94.7041 15.2266C95.0062 15.0599 95.2562 14.8333 95.4541 14.5469C95.652 14.2604 95.8005 13.9323 95.8994 13.5625C96.0036 13.1875 96.0557 12.7891 96.0557 12.3672V12.1875C96.0557 11.7708 96.0036 11.3776 95.8994 11.0078C95.8005 10.6328 95.6494 10.3021 95.4463 10.0156C95.2484 9.72396 94.9984 9.49479 94.6963 9.32812C94.3994 9.16146 94.0505 9.07812 93.6494 9.07812C93.2536 9.07812 92.9046 9.16146 92.6025 9.32812C92.3057 9.49479 92.0557 9.72396 91.8525 10.0156C91.6546 10.3021 91.5062 10.6328 91.4072 11.0078C91.3083 11.3776 91.2588 11.7708 91.2588 12.1875ZM100.767 9.85156V16.5H99.3213V8.04688H100.688L100.767 9.85156ZM100.423 11.9531L99.8213 11.9297C99.8265 11.3516 99.9124 10.8177 100.079 10.3281C100.246 9.83333 100.48 9.40365 100.782 9.03906C101.084 8.67448 101.444 8.39323 101.86 8.19531C102.282 7.99219 102.748 7.89062 103.259 7.89062C103.675 7.89062 104.05 7.94792 104.384 8.0625C104.717 8.17188 105.001 8.34896 105.235 8.59375C105.475 8.83854 105.657 9.15625 105.782 9.54688C105.907 9.93229 105.97 10.4036 105.97 10.9609V16.5H104.517V10.9453C104.517 10.5026 104.451 10.1484 104.321 9.88281C104.191 9.61198 104.001 9.41667 103.751 9.29688C103.501 9.17188 103.194 9.10938 102.829 9.10938C102.47 9.10938 102.142 9.1849 101.845 9.33594C101.553 9.48698 101.3 9.69531 101.087 9.96094C100.879 10.2266 100.715 10.5312 100.595 10.875C100.48 11.2135 100.423 11.5729 100.423 11.9531ZM113.087 14.2578C113.087 14.0495 113.04 13.8568 112.946 13.6797C112.858 13.4974 112.673 13.3333 112.392 13.1875C112.116 13.0365 111.699 12.9062 111.142 12.7969C110.673 12.6979 110.248 12.5807 109.868 12.4453C109.493 12.3099 109.173 12.1458 108.907 11.9531C108.647 11.7604 108.446 11.5339 108.306 11.2734C108.165 11.013 108.095 10.7083 108.095 10.3594C108.095 10.026 108.168 9.71094 108.313 9.41406C108.465 9.11719 108.675 8.85417 108.946 8.625C109.222 8.39583 109.553 8.21615 109.938 8.08594C110.324 7.95573 110.754 7.89062 111.228 7.89062C111.905 7.89062 112.483 8.01042 112.962 8.25C113.441 8.48958 113.808 8.8099 114.063 9.21094C114.319 9.60677 114.446 10.0469 114.446 10.5312H113.001C113.001 10.2969 112.931 10.0703 112.79 9.85156C112.655 9.6276 112.454 9.44271 112.188 9.29688C111.928 9.15104 111.608 9.07812 111.228 9.07812C110.826 9.07812 110.501 9.14062 110.251 9.26562C110.006 9.38542 109.826 9.53906 109.712 9.72656C109.603 9.91406 109.548 10.112 109.548 10.3203C109.548 10.4766 109.574 10.6172 109.626 10.7422C109.683 10.862 109.782 10.974 109.923 11.0781C110.063 11.1771 110.261 11.2708 110.517 11.3594C110.772 11.4479 111.097 11.5365 111.493 11.625C112.186 11.7812 112.756 11.9688 113.204 12.1875C113.652 12.4062 113.985 12.6745 114.204 12.9922C114.423 13.3099 114.532 13.6953 114.532 14.1484C114.532 14.5182 114.454 14.8568 114.298 15.1641C114.147 15.4714 113.925 15.737 113.634 15.9609C113.347 16.1797 113.004 16.3516 112.603 16.4766C112.207 16.5964 111.761 16.6562 111.267 16.6562C110.522 16.6562 109.892 16.5234 109.376 16.2578C108.86 15.9922 108.47 15.6484 108.204 15.2266C107.938 14.8047 107.806 14.3594 107.806 13.8906H109.259C109.28 14.2865 109.394 14.6016 109.603 14.8359C109.811 15.0651 110.066 15.2292 110.368 15.3281C110.67 15.4219 110.97 15.4688 111.267 15.4688C111.662 15.4688 111.993 15.4167 112.259 15.3125C112.53 15.2083 112.735 15.0651 112.876 14.8828C113.017 14.7005 113.087 14.4922 113.087 14.2578ZM121.603 14.5469V8.04688H123.056V16.5H121.673L121.603 14.5469ZM121.876 12.7656L122.478 12.75C122.478 13.3125 122.418 13.8333 122.298 14.3125C122.183 14.7865 121.996 15.1979 121.735 15.5469C121.475 15.8958 121.134 16.1693 120.712 16.3672C120.29 16.5599 119.777 16.6562 119.173 16.6562C118.761 16.6562 118.384 16.5964 118.04 16.4766C117.701 16.3568 117.41 16.1719 117.165 15.9219C116.92 15.6719 116.73 15.3464 116.595 14.9453C116.465 14.5443 116.399 14.0625 116.399 13.5V8.04688H117.845V13.5156C117.845 13.8958 117.886 14.2109 117.97 14.4609C118.058 14.7057 118.175 14.901 118.321 15.0469C118.472 15.1875 118.639 15.2865 118.821 15.3438C119.009 15.401 119.201 15.4297 119.399 15.4297C120.014 15.4297 120.501 15.3125 120.86 15.0781C121.22 14.8385 121.478 14.5182 121.634 14.1172C121.795 13.7109 121.876 13.2604 121.876 12.7656ZM126.829 4.5V16.5H125.376V4.5H126.829ZM132.688 8.04688V9.15625H128.118V8.04688H132.688ZM129.665 5.99219H131.11V14.4062C131.11 14.6927 131.155 14.9089 131.243 15.0547C131.332 15.2005 131.446 15.2969 131.587 15.3438C131.728 15.3906 131.879 15.4141 132.04 15.4141C132.16 15.4141 132.285 15.4036 132.415 15.3828C132.55 15.3568 132.652 15.3359 132.72 15.3203L132.728 16.5C132.613 16.5365 132.462 16.5703 132.274 16.6016C132.092 16.638 131.871 16.6562 131.61 16.6562C131.256 16.6562 130.931 16.5859 130.634 16.4453C130.337 16.3047 130.1 16.0703 129.923 15.7422C129.751 15.4089 129.665 14.9609 129.665 14.3984V5.99219ZM135.954 8.04688V16.5H134.501V8.04688H135.954ZM134.392 5.80469C134.392 5.57031 134.462 5.3724 134.603 5.21094C134.748 5.04948 134.962 4.96875 135.243 4.96875C135.519 4.96875 135.73 5.04948 135.876 5.21094C136.027 5.3724 136.103 5.57031 136.103 5.80469C136.103 6.02865 136.027 6.22135 135.876 6.38281C135.73 6.53906 135.519 6.61719 135.243 6.61719C134.962 6.61719 134.748 6.53906 134.603 6.38281C134.462 6.22135 134.392 6.02865 134.392 5.80469ZM139.72 9.85156V16.5H138.274V8.04688H139.642L139.72 9.85156ZM139.376 11.9531L138.774 11.9297C138.78 11.3516 138.866 10.8177 139.032 10.3281C139.199 9.83333 139.433 9.40365 139.735 9.03906C140.037 8.67448 140.397 8.39323 140.813 8.19531C141.235 7.99219 141.701 7.89062 142.212 7.89062C142.629 7.89062 143.004 7.94792 143.337 8.0625C143.67 8.17188 143.954 8.34896 144.188 8.59375C144.428 8.83854 144.61 9.15625 144.735 9.54688C144.86 9.93229 144.923 10.4036 144.923 10.9609V16.5H143.47V10.9453C143.47 10.5026 143.405 10.1484 143.274 9.88281C143.144 9.61198 142.954 9.41667 142.704 9.29688C142.454 9.17188 142.147 9.10938 141.782 9.10938C141.423 9.10938 141.095 9.1849 140.798 9.33594C140.506 9.48698 140.254 9.69531 140.04 9.96094C139.832 10.2266 139.668 10.5312 139.548 10.875C139.433 11.2135 139.376 11.5729 139.376 11.9531ZM152.595 8.04688H153.907V16.3203C153.907 17.0651 153.756 17.7005 153.454 18.2266C153.152 18.7526 152.73 19.151 152.188 19.4219C151.652 19.6979 151.032 19.8359 150.329 19.8359C150.037 19.8359 149.694 19.7891 149.298 19.6953C148.907 19.6068 148.522 19.4531 148.142 19.2344C147.767 19.0208 147.451 18.7318 147.196 18.3672L147.954 17.5078C148.308 17.9349 148.678 18.2318 149.063 18.3984C149.454 18.5651 149.84 18.6484 150.22 18.6484C150.678 18.6484 151.074 18.5625 151.407 18.3906C151.741 18.2188 151.998 17.9635 152.181 17.625C152.368 17.2917 152.462 16.8802 152.462 16.3906V9.90625L152.595 8.04688ZM146.774 12.3672V12.2031C146.774 11.5573 146.85 10.9714 147.001 10.4453C147.157 9.91406 147.379 9.45833 147.665 9.07812C147.957 8.69792 148.308 8.40625 148.72 8.20312C149.131 7.99479 149.595 7.89062 150.11 7.89062C150.642 7.89062 151.105 7.98438 151.501 8.17188C151.902 8.35417 152.241 8.6224 152.517 8.97656C152.798 9.32552 153.019 9.7474 153.181 10.2422C153.342 10.737 153.454 11.2969 153.517 11.9219V12.6406C153.459 13.2604 153.347 13.8177 153.181 14.3125C153.019 14.8073 152.798 15.2292 152.517 15.5781C152.241 15.9271 151.902 16.1953 151.501 16.3828C151.1 16.5651 150.631 16.6562 150.095 16.6562C149.59 16.6562 149.131 16.5495 148.72 16.3359C148.313 16.1224 147.965 15.8229 147.673 15.4375C147.381 15.0521 147.157 14.599 147.001 14.0781C146.85 13.5521 146.774 12.9818 146.774 12.3672ZM148.22 12.2031V12.3672C148.22 12.7891 148.261 13.1849 148.345 13.5547C148.433 13.9245 148.566 14.25 148.743 14.5312C148.925 14.8125 149.157 15.0339 149.438 15.1953C149.72 15.3516 150.056 15.4297 150.446 15.4297C150.925 15.4297 151.321 15.3281 151.634 15.125C151.946 14.9219 152.194 14.6536 152.376 14.3203C152.563 13.987 152.709 13.625 152.813 13.2344V11.3516C152.756 11.0651 152.668 10.7891 152.548 10.5234C152.433 10.2526 152.282 10.013 152.095 9.80469C151.912 9.59115 151.686 9.42188 151.415 9.29688C151.144 9.17188 150.826 9.10938 150.462 9.10938C150.066 9.10938 149.725 9.19271 149.438 9.35938C149.157 9.52083 148.925 9.74479 148.743 10.0312C148.566 10.3125 148.433 10.6406 148.345 11.0156C148.261 11.3854 148.22 11.7812 148.22 12.2031Z" fill="#646464"/>
</svg>
