<svg width="30" height="30" viewBox="0 0 30 30" fill="none" xmlns="http://www.w3.org/2000/svg">
<path d="M28.125 22.5V20.625H26.1553C26.0344 20.0381 25.8014 19.4801 25.4691 18.9816L26.8659 17.5847L25.5403 16.2591L24.1434 17.6559C23.6449 17.3236 23.0869 17.0906 22.5 16.9697V15H20.625V16.9697C20.0381 17.0906 19.4801 17.3236 18.9816 17.6559L17.5847 16.2591L16.2591 17.5847L17.6559 18.9816C17.3236 19.4801 17.0906 20.0381 16.9697 20.625H15V22.5H16.9697C17.0906 23.0869 17.3236 23.6449 17.6559 24.1434L16.2591 25.5403L17.5847 26.8659L18.9816 25.4691C19.4801 25.8014 20.0381 26.0344 20.625 26.1553V28.125H22.5V26.1553C23.0869 26.0344 23.6449 25.8014 24.1434 25.4691L25.5403 26.8659L26.8659 25.5403L25.4691 24.1434C25.8014 23.6449 26.0344 23.0869 26.1553 22.5H28.125ZM21.5625 24.375C21.0062 24.375 20.4625 24.2101 20 23.901C19.5374 23.592 19.177 23.1527 18.9641 22.6388C18.7512 22.1249 18.6955 21.5594 18.804 21.0138C18.9126 20.4682 19.1804 19.9671 19.5738 19.5738C19.9671 19.1804 20.4682 18.9126 21.0138 18.804C21.5594 18.6955 22.1249 18.7512 22.6388 18.9641C23.1527 19.177 23.592 19.5374 23.901 20C24.2101 20.4625 24.375 21.0062 24.375 21.5625C24.3743 22.3082 24.0777 23.0231 23.5504 23.5504C23.0231 24.0777 22.3082 24.3743 21.5625 24.375Z" fill="white"/>
<path d="M23.4375 4.6875H20.625V3.75C20.6235 3.25318 20.4255 2.77712 20.0742 2.42581C19.7229 2.0745 19.2468 1.87648 18.75 1.875H11.25C10.7532 1.87648 10.2771 2.0745 9.92581 2.42581C9.5745 2.77712 9.37648 3.25318 9.375 3.75V4.6875H6.5625C6.06568 4.68898 5.58962 4.887 5.23831 5.23831C4.887 5.58962 4.68898 6.06568 4.6875 6.5625V26.25C4.68898 26.7468 4.887 27.2229 5.23831 27.5742C5.58962 27.9255 6.06568 28.1235 6.5625 28.125H13.125V26.25H6.5625V6.5625H9.375V9.375H20.625V6.5625H23.4375V12.1875H25.3125V6.5625C25.311 6.06568 25.113 5.58962 24.7617 5.23831C24.4104 4.887 23.9343 4.68898 23.4375 4.6875ZM18.75 7.5H11.25V3.75H18.75V7.5Z" fill="white"/>
</svg>
