<svg width="236" height="34" viewBox="0 0 236 34" fill="none" xmlns="http://www.w3.org/2000/svg">
<path d="M5.52344 0.625V12H4.03906V0.625H5.52344ZM9.17969 0.625V1.85938H0.390625V0.625H9.17969ZM12.2272 0.625H15.9928C16.847 0.625 17.5683 0.755208 18.1569 1.01562C18.7506 1.27604 19.2011 1.66146 19.5084 2.17188C19.8209 2.67708 19.9772 3.29948 19.9772 4.03906C19.9772 4.5599 19.8704 5.03646 19.6569 5.46875C19.4485 5.89583 19.1465 6.26042 18.7506 6.5625C18.36 6.85938 17.8912 7.08073 17.3444 7.22656L16.9225 7.39062H13.3834L13.3678 6.16406H16.0397C16.5814 6.16406 17.0319 6.07031 17.3912 5.88281C17.7506 5.6901 18.0215 5.43229 18.2037 5.10938C18.386 4.78646 18.4772 4.42969 18.4772 4.03906C18.4772 3.60156 18.3912 3.21875 18.2194 2.89062C18.0475 2.5625 17.7767 2.3099 17.4069 2.13281C17.0423 1.95052 16.5709 1.85938 15.9928 1.85938H13.735V12H12.2272V0.625ZM18.8756 12L16.11 6.84375L17.6803 6.83594L20.485 11.9062V12H18.8756ZM29.9544 0.625H31.4544V8.32031C31.4544 9.17448 31.2643 9.88542 30.8841 10.4531C30.5039 11.0208 29.9986 11.4479 29.3684 11.7344C28.7434 12.0156 28.0637 12.1562 27.3294 12.1562C26.5585 12.1562 25.8606 12.0156 25.2356 11.7344C24.6158 11.4479 24.1236 11.0208 23.7591 10.4531C23.3997 9.88542 23.22 9.17448 23.22 8.32031V0.625H24.7122V8.32031C24.7122 8.91406 24.8216 9.40365 25.0403 9.78906C25.2591 10.1745 25.5637 10.4609 25.9544 10.6484C26.3502 10.8359 26.8085 10.9297 27.3294 10.9297C27.8554 10.9297 28.3137 10.8359 28.7044 10.6484C29.1002 10.4609 29.4075 10.1745 29.6262 9.78906C29.845 9.40365 29.9544 8.91406 29.9544 8.32031V0.625ZM41.2441 9.125C41.2441 8.85938 41.2024 8.625 41.1191 8.42188C41.0409 8.21354 40.9003 8.02604 40.6972 7.85938C40.4993 7.69271 40.2232 7.53385 39.8691 7.38281C39.5201 7.23177 39.0774 7.07812 38.5409 6.92188C37.9784 6.75521 37.4706 6.57031 37.0175 6.36719C36.5644 6.15885 36.1764 5.92188 35.8534 5.65625C35.5305 5.39062 35.2831 5.08594 35.1113 4.74219C34.9394 4.39844 34.8534 4.00521 34.8534 3.5625C34.8534 3.11979 34.9446 2.71094 35.1269 2.33594C35.3092 1.96094 35.5696 1.63542 35.9081 1.35938C36.2519 1.07812 36.6607 0.859375 37.1347 0.703125C37.6086 0.546875 38.1373 0.46875 38.7206 0.46875C39.5748 0.46875 40.2988 0.632812 40.8925 0.960938C41.4915 1.28385 41.9472 1.70833 42.2597 2.23438C42.5722 2.75521 42.7284 3.3125 42.7284 3.90625H41.2284C41.2284 3.47917 41.1373 3.10156 40.955 2.77344C40.7727 2.4401 40.4967 2.17969 40.1269 1.99219C39.7571 1.79948 39.2883 1.70312 38.7206 1.70312C38.1842 1.70312 37.7415 1.78385 37.3925 1.94531C37.0435 2.10677 36.7831 2.32552 36.6113 2.60156C36.4446 2.8776 36.3613 3.19271 36.3613 3.54688C36.3613 3.78646 36.4107 4.00521 36.5097 4.20312C36.6139 4.39583 36.7727 4.57552 36.9863 4.74219C37.205 4.90885 37.481 5.0625 37.8144 5.20312C38.1529 5.34375 38.5566 5.47917 39.0253 5.60938C39.6711 5.79167 40.2284 5.99479 40.6972 6.21875C41.1659 6.44271 41.5514 6.69531 41.8534 6.97656C42.1607 7.2526 42.3873 7.56771 42.5331 7.92188C42.6842 8.27083 42.7597 8.66667 42.7597 9.10938C42.7597 9.57292 42.6659 9.99219 42.4784 10.3672C42.2909 10.7422 42.0227 11.0625 41.6738 11.3281C41.3248 11.5938 40.9055 11.7995 40.4159 11.9453C39.9316 12.0859 39.3899 12.1562 38.7909 12.1562C38.2649 12.1562 37.7467 12.0833 37.2363 11.9375C36.731 11.7917 36.2701 11.5729 35.8534 11.2812C35.442 10.9896 35.1113 10.6302 34.8613 10.2031C34.6165 9.77083 34.4941 9.27083 34.4941 8.70312H35.9941C35.9941 9.09375 36.0696 9.42969 36.2206 9.71094C36.3717 9.98698 36.5774 10.2161 36.8378 10.3984C37.1034 10.5807 37.4029 10.7161 37.7363 10.8047C38.0748 10.888 38.4264 10.9297 38.7909 10.9297C39.317 10.9297 39.7623 10.8568 40.1269 10.7109C40.4915 10.5651 40.7675 10.3568 40.955 10.0859C41.1477 9.8151 41.2441 9.49479 41.2441 9.125ZM50.2447 0.625V12H48.7603V0.625H50.2447ZM53.9009 0.625V1.85938H45.1119V0.625H53.9009ZM64.175 10.7734V12H58.1516V10.7734H64.175ZM58.4562 0.625V12H56.9484V0.625H58.4562ZM63.3781 5.51562V6.74219H58.1516V5.51562H63.3781ZM64.0969 0.625V1.85938H58.1516V0.625H64.0969ZM70.4803 12H68.1053L68.1209 10.7734H70.4803C71.2928 10.7734 71.9699 10.6042 72.5116 10.2656C73.0532 9.92188 73.4595 9.44271 73.7303 8.82812C74.0064 8.20833 74.1444 7.48438 74.1444 6.65625V5.96094C74.1444 5.3099 74.0663 4.73177 73.91 4.22656C73.7538 3.71615 73.5246 3.28646 73.2225 2.9375C72.9204 2.58333 72.5506 2.3151 72.1131 2.13281C71.6808 1.95052 71.1834 1.85938 70.6209 1.85938H68.0584V0.625H70.6209C71.3657 0.625 72.0454 0.75 72.66 1C73.2746 1.24479 73.8032 1.60156 74.2459 2.07031C74.6939 2.53385 75.0376 3.09635 75.2772 3.75781C75.5168 4.41406 75.6366 5.15365 75.6366 5.97656V6.65625C75.6366 7.47917 75.5168 8.22135 75.2772 8.88281C75.0376 9.53906 74.6913 10.099 74.2381 10.5625C73.7902 11.026 73.2485 11.3828 72.6131 11.6328C71.9829 11.8776 71.272 12 70.4803 12ZM68.91 0.625V12H67.4022V0.625H68.91ZM88.6456 6.67969H85.7628L85.7472 5.46875H88.3644C88.7967 5.46875 89.1743 5.39583 89.4972 5.25C89.8201 5.10417 90.0701 4.89583 90.2472 4.625C90.4295 4.34896 90.5206 4.02083 90.5206 3.64062C90.5206 3.22396 90.4399 2.88542 90.2784 2.625C90.1222 2.35938 89.88 2.16667 89.5519 2.04688C89.229 1.92188 88.8175 1.85938 88.3175 1.85938H86.0987V12H84.5909V0.625H88.3175C88.9008 0.625 89.4217 0.684896 89.88 0.804688C90.3383 0.919271 90.7264 1.10156 91.0441 1.35156C91.367 1.59635 91.6118 1.90885 91.7784 2.28906C91.9451 2.66927 92.0284 3.125 92.0284 3.65625C92.0284 4.125 91.9086 4.54948 91.6691 4.92969C91.4295 5.30469 91.0961 5.61198 90.6691 5.85156C90.2472 6.09115 89.7524 6.24479 89.1847 6.3125L88.6456 6.67969ZM88.5753 12H85.1691L86.0206 10.7734H88.5753C89.0545 10.7734 89.4607 10.6901 89.7941 10.5234C90.1326 10.3568 90.3904 10.1224 90.5675 9.82031C90.7446 9.51302 90.8331 9.15104 90.8331 8.73438C90.8331 8.3125 90.7576 7.94792 90.6066 7.64062C90.4555 7.33333 90.2185 7.09635 89.8956 6.92969C89.5727 6.76302 89.156 6.67969 88.6456 6.67969H86.4972L86.5128 5.46875H89.4503L89.7706 5.90625C90.3175 5.95312 90.781 6.10938 91.1612 6.375C91.5415 6.63542 91.8305 6.96875 92.0284 7.375C92.2316 7.78125 92.3331 8.22917 92.3331 8.71875C92.3331 9.42708 92.1769 10.026 91.8644 10.5156C91.5571 11 91.1222 11.3698 90.5597 11.625C89.9972 11.875 89.3357 12 88.5753 12ZM96.0056 0.625L98.9587 6.33594L101.92 0.625H103.631L99.7087 7.75V12H98.2009V7.75L94.2791 0.625H96.0056ZM118.679 10.7734V12H112.991V10.7734H118.679ZM113.288 0.625V12H111.78V0.625H113.288ZM128.992 10.7734V12H122.968V10.7734H128.992ZM123.273 0.625V12H121.765V0.625H123.273ZM128.195 5.51562V6.74219H122.968V5.51562H128.195ZM128.914 0.625V1.85938H122.968V0.625H128.914ZM136.43 1.63281L132.664 12H131.125L135.461 0.625H136.453L136.43 1.63281ZM139.586 12L135.813 1.63281L135.789 0.625H136.782L141.133 12H139.586ZM139.391 7.78906V9.02344H133V7.78906H139.391ZM147.095 12H144.72L144.735 10.7734H147.095C147.907 10.7734 148.584 10.6042 149.126 10.2656C149.668 9.92188 150.074 9.44271 150.345 8.82812C150.621 8.20833 150.759 7.48438 150.759 6.65625V5.96094C150.759 5.3099 150.681 4.73177 150.524 4.22656C150.368 3.71615 150.139 3.28646 149.837 2.9375C149.535 2.58333 149.165 2.3151 148.727 2.13281C148.295 1.95052 147.798 1.85938 147.235 1.85938H144.673V0.625H147.235C147.98 0.625 148.66 0.75 149.274 1C149.889 1.24479 150.418 1.60156 150.86 2.07031C151.308 2.53385 151.652 3.09635 151.892 3.75781C152.131 4.41406 152.251 5.15365 152.251 5.97656V6.65625C152.251 7.47917 152.131 8.22135 151.892 8.88281C151.652 9.53906 151.306 10.099 150.852 10.5625C150.405 11.026 149.863 11.3828 149.227 11.6328C148.597 11.8776 147.886 12 147.095 12ZM145.524 0.625V12H144.017V0.625H145.524ZM157.494 0.625V12H155.986V0.625H157.494ZM170.346 0.625V12H168.83L163.104 3.22656V12H161.596V0.625H163.104L168.854 9.42188V0.625H170.346ZM182.784 6.33594V10.5C182.643 10.7083 182.419 10.9427 182.112 11.2031C181.805 11.4583 181.38 11.6823 180.839 11.875C180.302 12.0625 179.61 12.1562 178.761 12.1562C178.068 12.1562 177.43 12.0365 176.847 11.7969C176.268 11.5521 175.766 11.1979 175.339 10.7344C174.917 10.2656 174.589 9.69792 174.354 9.03125C174.125 8.35938 174.011 7.59896 174.011 6.75V5.86719C174.011 5.01823 174.11 4.26042 174.307 3.59375C174.511 2.92708 174.807 2.36198 175.198 1.89844C175.589 1.42969 176.068 1.07552 176.636 0.835938C177.203 0.591146 177.854 0.46875 178.589 0.46875C179.459 0.46875 180.185 0.619792 180.768 0.921875C181.357 1.21875 181.815 1.63021 182.143 2.15625C182.477 2.68229 182.69 3.28125 182.784 3.95312H181.276C181.209 3.54167 181.073 3.16667 180.87 2.82812C180.672 2.48958 180.388 2.21875 180.018 2.01562C179.649 1.80729 179.172 1.70312 178.589 1.70312C178.063 1.70312 177.607 1.79948 177.222 1.99219C176.836 2.1849 176.518 2.46094 176.268 2.82031C176.018 3.17969 175.831 3.61458 175.706 4.125C175.586 4.63542 175.526 5.21094 175.526 5.85156V6.75C175.526 7.40625 175.602 7.99219 175.753 8.50781C175.909 9.02344 176.13 9.46354 176.417 9.82812C176.703 10.1875 177.044 10.4609 177.44 10.6484C177.841 10.8359 178.284 10.9297 178.768 10.9297C179.305 10.9297 179.74 10.8854 180.073 10.7969C180.406 10.7031 180.667 10.5938 180.854 10.4688C181.042 10.3385 181.185 10.2161 181.284 10.1016V7.55469H178.651V6.33594H182.784ZM8.1875 29.3828H9.6875C9.60938 30.1016 9.40365 30.7448 9.07031 31.3125C8.73698 31.8802 8.26562 32.3307 7.65625 32.6641C7.04688 32.9922 6.28646 33.1562 5.375 33.1562C4.70833 33.1562 4.10156 33.0312 3.55469 32.7812C3.01302 32.5312 2.54688 32.1771 2.15625 31.7188C1.76562 31.2552 1.46354 30.7005 1.25 30.0547C1.04167 29.4036 0.9375 28.6797 0.9375 27.8828V26.75C0.9375 25.9531 1.04167 25.2318 1.25 24.5859C1.46354 23.9349 1.76823 23.3776 2.16406 22.9141C2.5651 22.4505 3.04688 22.0938 3.60938 21.8438C4.17188 21.5938 4.80469 21.4688 5.50781 21.4688C6.36719 21.4688 7.09375 21.6302 7.6875 21.9531C8.28125 22.276 8.74219 22.724 9.07031 23.2969C9.40365 23.8646 9.60938 24.5234 9.6875 25.2734H8.1875C8.11458 24.7422 7.97917 24.2865 7.78125 23.9062C7.58333 23.5208 7.30208 23.224 6.9375 23.0156C6.57292 22.8073 6.09635 22.7031 5.50781 22.7031C5.0026 22.7031 4.55729 22.7995 4.17188 22.9922C3.79167 23.1849 3.47135 23.4583 3.21094 23.8125C2.95573 24.1667 2.76302 24.5911 2.63281 25.0859C2.5026 25.5807 2.4375 26.1302 2.4375 26.7344V27.8828C2.4375 28.4401 2.49479 28.9635 2.60938 29.4531C2.72917 29.9427 2.90885 30.3724 3.14844 30.7422C3.38802 31.112 3.69271 31.4036 4.0625 31.6172C4.43229 31.8255 4.86979 31.9297 5.375 31.9297C6.01562 31.9297 6.52604 31.8281 6.90625 31.625C7.28646 31.4219 7.57292 31.1302 7.76562 30.75C7.96354 30.3698 8.10417 29.9141 8.1875 29.3828ZM21.86 26.9531V27.6719C21.86 28.526 21.7532 29.2917 21.5397 29.9688C21.3261 30.6458 21.0189 31.2214 20.6178 31.6953C20.2168 32.1693 19.735 32.5312 19.1725 32.7812C18.6152 33.0312 17.9902 33.1562 17.2975 33.1562C16.6256 33.1562 16.0084 33.0312 15.4459 32.7812C14.8886 32.5312 14.4043 32.1693 13.9928 31.6953C13.5866 31.2214 13.2715 30.6458 13.0475 29.9688C12.8235 29.2917 12.7116 28.526 12.7116 27.6719V26.9531C12.7116 26.099 12.8209 25.3359 13.0397 24.6641C13.2636 23.987 13.5787 23.4115 13.985 22.9375C14.3912 22.4583 14.873 22.0938 15.4303 21.8438C15.9928 21.5938 16.61 21.4688 17.2819 21.4688C17.9746 21.4688 18.5996 21.5938 19.1569 21.8438C19.7194 22.0938 20.2011 22.4583 20.6022 22.9375C21.0084 23.4115 21.3183 23.987 21.5319 24.6641C21.7506 25.3359 21.86 26.099 21.86 26.9531ZM20.3678 27.6719V26.9375C20.3678 26.2604 20.2975 25.6615 20.1569 25.1406C20.0215 24.6198 19.8209 24.1823 19.5553 23.8281C19.2897 23.474 18.9642 23.2057 18.5787 23.0234C18.1985 22.8411 17.7662 22.75 17.2819 22.75C16.8131 22.75 16.3886 22.8411 16.0084 23.0234C15.6334 23.2057 15.3105 23.474 15.0397 23.8281C14.7741 24.1823 14.5683 24.6198 14.4225 25.1406C14.2767 25.6615 14.2037 26.2604 14.2037 26.9375V27.6719C14.2037 28.3542 14.2767 28.9583 14.4225 29.4844C14.5683 30.0052 14.7767 30.4453 15.0475 30.8047C15.3235 31.1589 15.6491 31.4271 16.0241 31.6094C16.4043 31.7917 16.8287 31.8828 17.2975 31.8828C17.7871 31.8828 18.222 31.7917 18.6022 31.6094C18.9824 31.4271 19.3027 31.1589 19.5631 30.8047C19.8287 30.4453 20.0293 30.0052 20.1647 29.4844C20.3001 28.9583 20.3678 28.3542 20.3678 27.6719ZM25.9544 21.625H27.4153L31.1419 30.8984L34.8606 21.625H36.3294L31.7044 33H30.5637L25.9544 21.625ZM25.4778 21.625H26.7669L26.9778 28.5625V33H25.4778V21.625ZM35.5091 21.625H36.7981V33H35.2981V28.5625L35.5091 21.625ZM45.0019 28.5391H41.9628V27.3125H45.0019C45.5904 27.3125 46.067 27.2188 46.4316 27.0312C46.7961 26.8438 47.0618 26.5833 47.2284 26.25C47.4003 25.9167 47.4863 25.5365 47.4863 25.1094C47.4863 24.7188 47.4003 24.3516 47.2284 24.0078C47.0618 23.6641 46.7961 23.388 46.4316 23.1797C46.067 22.9661 45.5904 22.8594 45.0019 22.8594H42.3144V33H40.8066V21.625H45.0019C45.8613 21.625 46.5878 21.7734 47.1816 22.0703C47.7753 22.3672 48.2258 22.7786 48.5331 23.3047C48.8404 23.8255 48.9941 24.4219 48.9941 25.0938C48.9941 25.8229 48.8404 26.4453 48.5331 26.9609C48.2258 27.4766 47.7753 27.8698 47.1816 28.1406C46.5878 28.4062 45.8613 28.5391 45.0019 28.5391ZM55.3931 22.6328L51.6275 33H50.0884L54.4244 21.625H55.4166L55.3931 22.6328ZM58.5494 33L54.7759 22.6328L54.7525 21.625H55.7447L60.0962 33H58.5494ZM58.3541 28.7891V30.0234H51.9634V28.7891H58.3541ZM71.7297 21.625V33H70.2141L64.4875 24.2266V33H62.9797V21.625H64.4875L70.2375 30.4219V21.625H71.7297ZM77.3788 21.625V33H75.8709V21.625H77.3788ZM88.7075 31.7734V33H82.6841V31.7734H88.7075ZM82.9887 21.625V33H81.4809V21.625H82.9887ZM87.9106 26.5156V27.7422H82.6841V26.5156H87.9106ZM88.6294 21.625V22.8594H82.6841V21.625H88.6294ZM97.9972 30.125C97.9972 29.8594 97.9555 29.625 97.8722 29.4219C97.7941 29.2135 97.6534 29.026 97.4503 28.8594C97.2524 28.6927 96.9764 28.5339 96.6222 28.3828C96.2732 28.2318 95.8305 28.0781 95.2941 27.9219C94.7316 27.7552 94.2237 27.5703 93.7706 27.3672C93.3175 27.1589 92.9295 26.9219 92.6066 26.6562C92.2836 26.3906 92.0362 26.0859 91.8644 25.7422C91.6925 25.3984 91.6066 25.0052 91.6066 24.5625C91.6066 24.1198 91.6977 23.7109 91.88 23.3359C92.0623 22.9609 92.3227 22.6354 92.6612 22.3594C93.005 22.0781 93.4139 21.8594 93.8878 21.7031C94.3618 21.5469 94.8904 21.4688 95.4737 21.4688C96.3279 21.4688 97.0519 21.6328 97.6456 21.9609C98.2446 22.2839 98.7003 22.7083 99.0128 23.2344C99.3253 23.7552 99.4816 24.3125 99.4816 24.9062H97.9816C97.9816 24.4792 97.8904 24.1016 97.7081 23.7734C97.5258 23.4401 97.2498 23.1797 96.88 22.9922C96.5102 22.7995 96.0415 22.7031 95.4737 22.7031C94.9373 22.7031 94.4946 22.7839 94.1456 22.9453C93.7967 23.1068 93.5362 23.3255 93.3644 23.6016C93.1977 23.8776 93.1144 24.1927 93.1144 24.5469C93.1144 24.7865 93.1639 25.0052 93.2628 25.2031C93.367 25.3958 93.5258 25.5755 93.7394 25.7422C93.9581 25.9089 94.2342 26.0625 94.5675 26.2031C94.906 26.3438 95.3097 26.4792 95.7784 26.6094C96.4243 26.7917 96.9816 26.9948 97.4503 27.2188C97.9191 27.4427 98.3045 27.6953 98.6066 27.9766C98.9139 28.2526 99.1404 28.5677 99.2862 28.9219C99.4373 29.2708 99.5128 29.6667 99.5128 30.1094C99.5128 30.5729 99.4191 30.9922 99.2316 31.3672C99.0441 31.7422 98.7758 32.0625 98.4269 32.3281C98.0779 32.5938 97.6586 32.7995 97.1691 32.9453C96.6847 33.0859 96.143 33.1562 95.5441 33.1562C95.018 33.1562 94.4998 33.0833 93.9894 32.9375C93.4842 32.7917 93.0232 32.5729 92.6066 32.2812C92.1951 31.9896 91.8644 31.6302 91.6144 31.2031C91.3696 30.7708 91.2472 30.2708 91.2472 29.7031H92.7472C92.7472 30.0938 92.8227 30.4297 92.9737 30.7109C93.1248 30.987 93.3305 31.2161 93.5909 31.3984C93.8566 31.5807 94.156 31.7161 94.4894 31.8047C94.8279 31.888 95.1795 31.9297 95.5441 31.9297C96.0701 31.9297 96.5154 31.8568 96.88 31.7109C97.2446 31.5651 97.5206 31.3568 97.7081 31.0859C97.9008 30.8151 97.9972 30.4948 97.9972 30.125ZM112.334 22.6328L108.569 33H107.03L111.366 21.625H112.358L112.334 22.6328ZM115.491 33L111.717 22.6328L111.694 21.625H112.686L117.037 33H115.491ZM115.295 28.7891V30.0234H108.905V28.7891H115.295ZM128.671 21.625V33H127.155L121.429 24.2266V33H119.921V21.625H121.429L127.179 30.4219V21.625H128.671ZM135.781 33H133.406L133.422 31.7734H135.781C136.593 31.7734 137.271 31.6042 137.812 31.2656C138.354 30.9219 138.76 30.4427 139.031 29.8281C139.307 29.2083 139.445 28.4844 139.445 27.6562V26.9609C139.445 26.3099 139.367 25.7318 139.211 25.2266C139.054 24.7161 138.825 24.2865 138.523 23.9375C138.221 23.5833 137.851 23.3151 137.414 23.1328C136.981 22.9505 136.484 22.8594 135.922 22.8594H133.359V21.625H135.922C136.666 21.625 137.346 21.75 137.961 22C138.575 22.2448 139.104 22.6016 139.547 23.0703C139.994 23.5339 140.338 24.0964 140.578 24.7578C140.817 25.4141 140.937 26.1536 140.937 26.9766V27.6562C140.937 28.4792 140.817 29.2214 140.578 29.8828C140.338 30.5391 139.992 31.099 139.539 31.5625C139.091 32.026 138.549 32.3828 137.914 32.6328C137.284 32.8776 136.573 33 135.781 33ZM134.211 21.625V33H132.703V21.625H134.211ZM155.954 30.125C155.954 29.8594 155.912 29.625 155.829 29.4219C155.751 29.2135 155.61 29.026 155.407 28.8594C155.209 28.6927 154.933 28.5339 154.579 28.3828C154.23 28.2318 153.787 28.0781 153.251 27.9219C152.688 27.7552 152.181 27.5703 151.727 27.3672C151.274 27.1589 150.886 26.9219 150.563 26.6562C150.241 26.3906 149.993 26.0859 149.821 25.7422C149.649 25.3984 149.563 25.0052 149.563 24.5625C149.563 24.1198 149.655 23.7109 149.837 23.3359C150.019 22.9609 150.28 22.6354 150.618 22.3594C150.962 22.0781 151.371 21.8594 151.845 21.7031C152.319 21.5469 152.847 21.4688 153.431 21.4688C154.285 21.4688 155.009 21.6328 155.602 21.9609C156.201 22.2839 156.657 22.7083 156.97 23.2344C157.282 23.7552 157.438 24.3125 157.438 24.9062H155.938C155.938 24.4792 155.847 24.1016 155.665 23.7734C155.483 23.4401 155.207 23.1797 154.837 22.9922C154.467 22.7995 153.998 22.7031 153.431 22.7031C152.894 22.7031 152.451 22.7839 152.102 22.9453C151.754 23.1068 151.493 23.3255 151.321 23.6016C151.155 23.8776 151.071 24.1927 151.071 24.5469C151.071 24.7865 151.121 25.0052 151.22 25.2031C151.324 25.3958 151.483 25.5755 151.696 25.7422C151.915 25.9089 152.191 26.0625 152.524 26.2031C152.863 26.3438 153.267 26.4792 153.735 26.6094C154.381 26.7917 154.938 26.9948 155.407 27.2188C155.876 27.4427 156.261 27.6953 156.563 27.9766C156.871 28.2526 157.097 28.5677 157.243 28.9219C157.394 29.2708 157.47 29.6667 157.47 30.1094C157.47 30.5729 157.376 30.9922 157.188 31.3672C157.001 31.7422 156.733 32.0625 156.384 32.3281C156.035 32.5938 155.616 32.7995 155.126 32.9453C154.642 33.0859 154.1 33.1562 153.501 33.1562C152.975 33.1562 152.457 33.0833 151.946 32.9375C151.441 32.7917 150.98 32.5729 150.563 32.2812C150.152 31.9896 149.821 31.6302 149.571 31.2031C149.326 30.7708 149.204 30.2708 149.204 29.7031H150.704C150.704 30.0938 150.78 30.4297 150.931 30.7109C151.082 30.987 151.287 31.2161 151.548 31.3984C151.813 31.5807 152.113 31.7161 152.446 31.8047C152.785 31.888 153.136 31.9297 153.501 31.9297C154.027 31.9297 154.472 31.8568 154.837 31.7109C155.201 31.5651 155.477 31.3568 155.665 31.0859C155.858 30.8151 155.954 30.4948 155.954 30.125ZM164.955 21.625V33H163.47V21.625H164.955ZM168.611 21.625V22.8594H159.822V21.625H168.611ZM175.244 22.6328L171.479 33H169.94L174.276 21.625H175.268L175.244 22.6328ZM178.401 33L174.627 22.6328L174.604 21.625H175.596L179.947 33H178.401ZM178.205 28.7891V30.0234H171.815V28.7891H178.205ZM182.831 21.625H186.597C187.451 21.625 188.172 21.7552 188.761 22.0156C189.354 22.276 189.805 22.6615 190.112 23.1719C190.425 23.6771 190.581 24.2995 190.581 25.0391C190.581 25.5599 190.474 26.0365 190.261 26.4688C190.052 26.8958 189.75 27.2604 189.354 27.5625C188.964 27.8594 188.495 28.0807 187.948 28.2266L187.526 28.3906H183.987L183.972 27.1641H186.643C187.185 27.1641 187.636 27.0703 187.995 26.8828C188.354 26.6901 188.625 26.4323 188.807 26.1094C188.99 25.7865 189.081 25.4297 189.081 25.0391C189.081 24.6016 188.995 24.2188 188.823 23.8906C188.651 23.5625 188.38 23.3099 188.011 23.1328C187.646 22.9505 187.175 22.8594 186.597 22.8594H184.339V33H182.831V21.625ZM189.479 33L186.714 27.8438L188.284 27.8359L191.089 32.9062V33H189.479ZM197.628 21.625V33H196.144V21.625H197.628ZM201.285 21.625V22.8594H192.496V21.625H201.285ZM210.84 21.625H212.34V29.3203C212.34 30.1745 212.15 30.8854 211.77 31.4531C211.389 32.0208 210.884 32.4479 210.254 32.7344C209.629 33.0156 208.949 33.1562 208.215 33.1562C207.444 33.1562 206.746 33.0156 206.121 32.7344C205.501 32.4479 205.009 32.0208 204.645 31.4531C204.285 30.8854 204.106 30.1745 204.106 29.3203V21.625H205.598V29.3203C205.598 29.9141 205.707 30.4036 205.926 30.7891C206.145 31.1745 206.449 31.4609 206.84 31.6484C207.236 31.8359 207.694 31.9297 208.215 31.9297C208.741 31.9297 209.199 31.8359 209.59 31.6484C209.986 31.4609 210.293 31.1745 210.512 30.7891C210.731 30.4036 210.84 29.9141 210.84 29.3203V21.625ZM220.262 28.5391H217.223V27.3125H220.262C220.851 27.3125 221.328 27.2188 221.692 27.0312C222.057 26.8438 222.322 26.5833 222.489 26.25C222.661 25.9167 222.747 25.5365 222.747 25.1094C222.747 24.7188 222.661 24.3516 222.489 24.0078C222.322 23.6641 222.057 23.388 221.692 23.1797C221.328 22.9661 220.851 22.8594 220.262 22.8594H217.575V33H216.067V21.625H220.262C221.122 21.625 221.848 21.7734 222.442 22.0703C223.036 22.3672 223.486 22.7786 223.794 23.3047C224.101 23.8255 224.255 24.4219 224.255 25.0938C224.255 25.8229 224.101 26.4453 223.794 26.9609C223.486 27.4766 223.036 27.8698 222.442 28.1406C221.848 28.4062 221.122 28.5391 220.262 28.5391ZM233.583 30.125C233.583 29.8594 233.542 29.625 233.458 29.4219C233.38 29.2135 233.24 29.026 233.037 28.8594C232.839 28.6927 232.563 28.5339 232.208 28.3828C231.859 28.2318 231.417 28.0781 230.88 27.9219C230.318 27.7552 229.81 27.5703 229.357 27.3672C228.904 27.1589 228.516 26.9219 228.193 26.6562C227.87 26.3906 227.622 26.0859 227.451 25.7422C227.279 25.3984 227.193 25.0052 227.193 24.5625C227.193 24.1198 227.284 23.7109 227.466 23.3359C227.649 22.9609 227.909 22.6354 228.247 22.3594C228.591 22.0781 229 21.8594 229.474 21.7031C229.948 21.5469 230.477 21.4688 231.06 21.4688C231.914 21.4688 232.638 21.6328 233.232 21.9609C233.831 22.2839 234.287 22.7083 234.599 23.2344C234.912 23.7552 235.068 24.3125 235.068 24.9062H233.568C233.568 24.4792 233.477 24.1016 233.294 23.7734C233.112 23.4401 232.836 23.1797 232.466 22.9922C232.096 22.7995 231.628 22.7031 231.06 22.7031C230.524 22.7031 230.081 22.7839 229.732 22.9453C229.383 23.1068 229.122 23.3255 228.951 23.6016C228.784 23.8776 228.701 24.1927 228.701 24.5469C228.701 24.7865 228.75 25.0052 228.849 25.2031C228.953 25.3958 229.112 25.5755 229.326 25.7422C229.544 25.9089 229.82 26.0625 230.154 26.2031C230.492 26.3438 230.896 26.4792 231.365 26.6094C232.011 26.7917 232.568 26.9948 233.037 27.2188C233.505 27.4427 233.891 27.6953 234.193 27.9766C234.5 28.2526 234.727 28.5677 234.872 28.9219C235.024 29.2708 235.099 29.6667 235.099 30.1094C235.099 30.5729 235.005 30.9922 234.818 31.3672C234.63 31.7422 234.362 32.0625 234.013 32.3281C233.664 32.5938 233.245 32.7995 232.755 32.9453C232.271 33.0859 231.729 33.1562 231.13 33.1562C230.604 33.1562 230.086 33.0833 229.576 32.9375C229.07 32.7917 228.609 32.5729 228.193 32.2812C227.781 31.9896 227.451 31.6302 227.201 31.2031C226.956 30.7708 226.833 30.2708 226.833 29.7031H228.333C228.333 30.0938 228.409 30.4297 228.56 30.7109C228.711 30.987 228.917 31.2161 229.177 31.3984C229.443 31.5807 229.742 31.7161 230.076 31.8047C230.414 31.888 230.766 31.9297 231.13 31.9297C231.656 31.9297 232.102 31.8568 232.466 31.7109C232.831 31.5651 233.107 31.3568 233.294 31.0859C233.487 30.8151 233.583 30.4948 233.583 30.125Z" fill="#646464"/>
</svg>
