<svg width="229" height="20" viewBox="0 0 229 20" fill="none" xmlns="http://www.w3.org/2000/svg">
<path fill-rule="evenodd" clip-rule="evenodd" d="M17.6864 2.55884H0.862915V17.4412H9.27478V9.67651H17.6864V2.55884Z" fill="#646464"/>
<path d="M30.0545 16L26.2785 4.8H27.4945L31.0305 15.344H30.4225L34.0705 4.8H35.1585L38.7585 15.344H38.1825L41.7505 4.8H42.8865L39.1105 16H37.8625L34.4225 6H34.7425L31.2865 16H30.0545ZM44.7705 16V7.6H45.9065V16H44.7705ZM45.3465 5.744C45.1118 5.744 44.9145 5.664 44.7545 5.504C44.5945 5.344 44.5145 5.152 44.5145 4.928C44.5145 4.704 44.5945 4.51733 44.7545 4.368C44.9145 4.208 45.1118 4.128 45.3465 4.128C45.5811 4.128 45.7785 4.20267 45.9385 4.352C46.0985 4.50133 46.1785 4.688 46.1785 4.912C46.1785 5.14667 46.0985 5.344 45.9385 5.504C45.7891 5.664 45.5918 5.744 45.3465 5.744ZM49.0673 16V4.128H50.2033V16H49.0673ZM53.3642 16V4.128H54.5002V16H53.3642ZM57.6611 16V7.6H58.7971V16H57.6611ZM58.2371 5.744C58.0024 5.744 57.8051 5.664 57.6451 5.504C57.4851 5.344 57.4051 5.152 57.4051 4.928C57.4051 4.704 57.4851 4.51733 57.6451 4.368C57.8051 4.208 58.0024 4.128 58.2371 4.128C58.4718 4.128 58.6691 4.20267 58.8291 4.352C58.9891 4.50133 59.0691 4.688 59.0691 4.912C59.0691 5.14667 58.9891 5.344 58.8291 5.504C58.6798 5.664 58.4824 5.744 58.2371 5.744ZM67.222 16V14.144L67.174 13.84V10.736C67.174 10.0213 66.9713 9.472 66.566 9.088C66.1713 8.704 65.5793 8.512 64.79 8.512C64.246 8.512 63.7286 8.60267 63.238 8.784C62.7473 8.96533 62.3313 9.20533 61.99 9.504L61.478 8.656C61.9046 8.29333 62.4166 8.016 63.014 7.824C63.6113 7.62133 64.2406 7.52 64.902 7.52C65.99 7.52 66.8273 7.792 67.414 8.336C68.0113 8.86933 68.31 9.68533 68.31 10.784V16H67.222ZM64.326 16.08C63.6966 16.08 63.1473 15.9787 62.678 15.776C62.2193 15.5627 61.8673 15.2747 61.622 14.912C61.3766 14.5387 61.254 14.112 61.254 13.632C61.254 13.1947 61.3553 12.8 61.558 12.448C61.7713 12.0853 62.1126 11.7973 62.582 11.584C63.062 11.36 63.702 11.248 64.502 11.248H67.398V12.096H64.534C63.7233 12.096 63.158 12.24 62.838 12.528C62.5286 12.816 62.374 13.1733 62.374 13.6C62.374 14.08 62.5606 14.464 62.934 14.752C63.3073 15.04 63.83 15.184 64.502 15.184C65.142 15.184 65.6913 15.04 66.15 14.752C66.6193 14.4533 66.9606 14.0267 67.174 13.472L67.43 14.256C67.2166 14.8107 66.8433 15.2533 66.31 15.584C65.7873 15.9147 65.126 16.08 64.326 16.08ZM81.8915 7.52C82.5741 7.52 83.1661 7.65333 83.6675 7.92C84.1795 8.176 84.5741 8.57067 84.8515 9.104C85.1395 9.63733 85.2835 10.3093 85.2835 11.12V16H84.1475V11.232C84.1475 10.3467 83.9341 9.68 83.5075 9.232C83.0915 8.77333 82.4995 8.544 81.7315 8.544C81.1555 8.544 80.6541 8.66667 80.2275 8.912C79.8115 9.14667 79.4861 9.49333 79.2515 9.952C79.0275 10.4 78.9155 10.944 78.9155 11.584V16H77.7795V11.232C77.7795 10.3467 77.5661 9.68 77.1395 9.232C76.7128 8.77333 76.1155 8.544 75.3475 8.544C74.7821 8.544 74.2861 8.66667 73.8595 8.912C73.4328 9.14667 73.1021 9.49333 72.8675 9.952C72.6435 10.4 72.5315 10.944 72.5315 11.584V16H71.3955V7.6H72.4835V9.872L72.3075 9.472C72.5635 8.864 72.9741 8.38933 73.5395 8.048C74.1155 7.696 74.7928 7.52 75.5715 7.52C76.3928 7.52 77.0915 7.728 77.6675 8.144C78.2435 8.54933 78.6168 9.16267 78.7875 9.984L78.3395 9.808C78.5848 9.12533 79.0168 8.576 79.6355 8.16C80.2648 7.73333 81.0168 7.52 81.8915 7.52ZM90.6202 16.08C89.9269 16.08 89.2709 15.984 88.6522 15.792C88.0335 15.5893 87.5482 15.3387 87.1962 15.04L87.7082 14.144C88.0495 14.4 88.4869 14.624 89.0202 14.816C89.5535 14.9973 90.1135 15.088 90.7002 15.088C91.5002 15.088 92.0762 14.9653 92.4282 14.72C92.7802 14.464 92.9562 14.128 92.9562 13.712C92.9562 13.4027 92.8549 13.1627 92.6522 12.992C92.4602 12.8107 92.2042 12.6773 91.8842 12.592C91.5642 12.496 91.2069 12.416 90.8122 12.352C90.4175 12.288 90.0229 12.2133 89.6282 12.128C89.2442 12.0427 88.8922 11.92 88.5722 11.76C88.2522 11.5893 87.9909 11.36 87.7882 11.072C87.5962 10.784 87.5002 10.4 87.5002 9.92C87.5002 9.46133 87.6282 9.05067 87.8842 8.688C88.1402 8.32533 88.5135 8.04267 89.0042 7.84C89.5055 7.62667 90.1135 7.52 90.8282 7.52C91.3722 7.52 91.9162 7.59467 92.4602 7.744C93.0042 7.88267 93.4522 8.06933 93.8042 8.304L93.3082 9.216C92.9349 8.96 92.5349 8.77867 92.1082 8.672C91.6815 8.55467 91.2549 8.496 90.8282 8.496C90.0709 8.496 89.5109 8.62933 89.1482 8.896C88.7962 9.152 88.6202 9.48267 88.6202 9.888C88.6202 10.208 88.7162 10.4587 88.9082 10.64C89.1109 10.8213 89.3722 10.9653 89.6922 11.072C90.0229 11.168 90.3802 11.248 90.7642 11.312C91.1589 11.376 91.5482 11.456 91.9322 11.552C92.3269 11.6373 92.6842 11.76 93.0042 11.92C93.3349 12.0693 93.5962 12.288 93.7882 12.576C93.9909 12.8533 94.0922 13.2213 94.0922 13.68C94.0922 14.1707 93.9535 14.5973 93.6762 14.96C93.4095 15.312 93.0149 15.5893 92.4922 15.792C91.9802 15.984 91.3562 16.08 90.6202 16.08ZM105.468 16.096C104.626 16.096 103.847 15.9573 103.132 15.68C102.418 15.392 101.799 14.992 101.276 14.48C100.754 13.968 100.343 13.3653 100.044 12.672C99.7562 11.9787 99.6122 11.2213 99.6122 10.4C99.6122 9.57867 99.7562 8.82133 100.044 8.128C100.343 7.43467 100.754 6.832 101.276 6.32C101.81 5.808 102.434 5.41333 103.148 5.136C103.863 4.848 104.642 4.704 105.484 4.704C106.295 4.704 107.058 4.84267 107.772 5.12C108.487 5.38667 109.09 5.792 109.58 6.336L108.828 7.088C108.37 6.61867 107.863 6.28267 107.308 6.08C106.754 5.86667 106.156 5.76 105.516 5.76C104.844 5.76 104.22 5.87733 103.644 6.112C103.068 6.336 102.567 6.66133 102.14 7.088C101.714 7.504 101.378 7.99467 101.132 8.56C100.898 9.11467 100.78 9.728 100.78 10.4C100.78 11.072 100.898 11.6907 101.132 12.256C101.378 12.8107 101.714 13.3013 102.14 13.728C102.567 14.144 103.068 14.4693 103.644 14.704C104.22 14.928 104.844 15.04 105.516 15.04C106.156 15.04 106.754 14.9333 107.308 14.72C107.863 14.5067 108.37 14.1653 108.828 13.696L109.58 14.448C109.09 14.992 108.487 15.4027 107.772 15.68C107.058 15.9573 106.29 16.096 105.468 16.096ZM114.913 16.08C114.103 16.08 113.372 15.8987 112.721 15.536C112.081 15.1627 111.575 14.656 111.201 14.016C110.828 13.3653 110.641 12.624 110.641 11.792C110.641 10.9493 110.828 10.208 111.201 9.568C111.575 8.928 112.081 8.42667 112.721 8.064C113.361 7.70133 114.092 7.52 114.913 7.52C115.745 7.52 116.481 7.70133 117.121 8.064C117.772 8.42667 118.279 8.928 118.641 9.568C119.015 10.208 119.201 10.9493 119.201 11.792C119.201 12.624 119.015 13.3653 118.641 14.016C118.279 14.656 117.772 15.1627 117.121 15.536C116.471 15.8987 115.735 16.08 114.913 16.08ZM114.913 15.072C115.521 15.072 116.06 14.9387 116.529 14.672C116.999 14.3947 117.367 14.0107 117.633 13.52C117.911 13.0187 118.049 12.4427 118.049 11.792C118.049 11.1307 117.911 10.5547 117.633 10.064C117.367 9.57333 116.999 9.19467 116.529 8.928C116.06 8.65067 115.527 8.512 114.929 8.512C114.332 8.512 113.799 8.65067 113.329 8.928C112.86 9.19467 112.487 9.57333 112.209 10.064C111.932 10.5547 111.793 11.1307 111.793 11.792C111.793 12.4427 111.932 13.0187 112.209 13.52C112.487 14.0107 112.86 14.3947 113.329 14.672C113.799 14.9387 114.327 15.072 114.913 15.072ZM125.808 7.52C126.491 7.52 127.088 7.65333 127.6 7.92C128.123 8.176 128.528 8.57067 128.816 9.104C129.115 9.63733 129.264 10.3093 129.264 11.12V16H128.128V11.232C128.128 10.3467 127.904 9.68 127.456 9.232C127.019 8.77333 126.4 8.544 125.6 8.544C125.003 8.544 124.48 8.66667 124.032 8.912C123.595 9.14667 123.254 9.49333 123.008 9.952C122.774 10.4 122.656 10.944 122.656 11.584V16H121.52V7.6H122.608V9.904L122.432 9.472C122.699 8.864 123.126 8.38933 123.712 8.048C124.299 7.696 124.998 7.52 125.808 7.52ZM134.589 16.08C133.896 16.08 133.24 15.984 132.621 15.792C132.002 15.5893 131.517 15.3387 131.165 15.04L131.677 14.144C132.018 14.4 132.456 14.624 132.989 14.816C133.522 14.9973 134.082 15.088 134.669 15.088C135.469 15.088 136.045 14.9653 136.397 14.72C136.749 14.464 136.925 14.128 136.925 13.712C136.925 13.4027 136.824 13.1627 136.621 12.992C136.429 12.8107 136.173 12.6773 135.853 12.592C135.533 12.496 135.176 12.416 134.781 12.352C134.386 12.288 133.992 12.2133 133.597 12.128C133.213 12.0427 132.861 11.92 132.541 11.76C132.221 11.5893 131.96 11.36 131.757 11.072C131.565 10.784 131.469 10.4 131.469 9.92C131.469 9.46133 131.597 9.05067 131.853 8.688C132.109 8.32533 132.482 8.04267 132.973 7.84C133.474 7.62667 134.082 7.52 134.797 7.52C135.341 7.52 135.885 7.59467 136.429 7.744C136.973 7.88267 137.421 8.06933 137.773 8.304L137.277 9.216C136.904 8.96 136.504 8.77867 136.077 8.672C135.65 8.55467 135.224 8.496 134.797 8.496C134.04 8.496 133.48 8.62933 133.117 8.896C132.765 9.152 132.589 9.48267 132.589 9.888C132.589 10.208 132.685 10.4587 132.877 10.64C133.08 10.8213 133.341 10.9653 133.661 11.072C133.992 11.168 134.349 11.248 134.733 11.312C135.128 11.376 135.517 11.456 135.901 11.552C136.296 11.6373 136.653 11.76 136.973 11.92C137.304 12.0693 137.565 12.288 137.757 12.576C137.96 12.8533 138.061 13.2213 138.061 13.68C138.061 14.1707 137.922 14.5973 137.645 14.96C137.378 15.312 136.984 15.5893 136.461 15.792C135.949 15.984 135.325 16.08 134.589 16.08ZM142.801 16.08C142.012 16.08 141.404 15.8667 140.977 15.44C140.551 15.0133 140.337 14.4107 140.337 13.632V5.744H141.473V13.568C141.473 14.0587 141.596 14.4373 141.841 14.704C142.097 14.9707 142.46 15.104 142.929 15.104C143.431 15.104 143.847 14.96 144.177 14.672L144.577 15.488C144.353 15.6907 144.081 15.84 143.761 15.936C143.452 16.032 143.132 16.08 142.801 16.08ZM138.833 8.544V7.6H144.033V8.544H138.833ZM146.645 16V7.6H147.733V9.888L147.621 9.488C147.856 8.848 148.251 8.36267 148.805 8.032C149.36 7.69067 150.048 7.52 150.869 7.52V8.624C150.827 8.624 150.784 8.624 150.741 8.624C150.699 8.61333 150.656 8.608 150.613 8.608C149.728 8.608 149.035 8.88 148.533 9.424C148.032 9.95733 147.781 10.72 147.781 11.712V16H146.645ZM156.539 16.08C155.825 16.08 155.201 15.9467 154.667 15.68C154.134 15.4133 153.718 15.0133 153.419 14.48C153.131 13.9467 152.987 13.28 152.987 12.48V7.6H154.123V12.352C154.123 13.248 154.342 13.9253 154.779 14.384C155.227 14.832 155.851 15.056 156.651 15.056C157.238 15.056 157.745 14.9387 158.171 14.704C158.609 14.4587 158.939 14.1067 159.163 13.648C159.398 13.1893 159.515 12.64 159.515 12V7.6H160.651V16H159.563V13.696L159.739 14.112C159.473 14.7307 159.057 15.216 158.491 15.568C157.937 15.9093 157.286 16.08 156.539 16.08ZM167.305 16.08C166.473 16.08 165.727 15.8987 165.065 15.536C164.415 15.1627 163.903 14.656 163.529 14.016C163.156 13.3653 162.969 12.624 162.969 11.792C162.969 10.9493 163.156 10.208 163.529 9.568C163.903 8.928 164.415 8.42667 165.065 8.064C165.727 7.70133 166.473 7.52 167.305 7.52C168.02 7.52 168.665 7.65867 169.241 7.936C169.817 8.21333 170.271 8.62933 170.601 9.184L169.753 9.76C169.465 9.33333 169.108 9.01867 168.681 8.816C168.255 8.61333 167.791 8.512 167.289 8.512C166.692 8.512 166.153 8.65067 165.673 8.928C165.193 9.19467 164.815 9.57333 164.537 10.064C164.26 10.5547 164.121 11.1307 164.121 11.792C164.121 12.4533 164.26 13.0293 164.537 13.52C164.815 14.0107 165.193 14.3947 165.673 14.672C166.153 14.9387 166.692 15.072 167.289 15.072C167.791 15.072 168.255 14.9707 168.681 14.768C169.108 14.5653 169.465 14.256 169.753 13.84L170.601 14.416C170.271 14.96 169.817 15.376 169.241 15.664C168.665 15.9413 168.02 16.08 167.305 16.08ZM175.583 16.08C174.793 16.08 174.185 15.8667 173.759 15.44C173.332 15.0133 173.119 14.4107 173.119 13.632V5.744H174.255V13.568C174.255 14.0587 174.377 14.4373 174.623 14.704C174.879 14.9707 175.241 15.104 175.711 15.104C176.212 15.104 176.628 14.96 176.959 14.672L177.359 15.488C177.135 15.6907 176.863 15.84 176.543 15.936C176.233 16.032 175.913 16.08 175.583 16.08ZM171.615 8.544V7.6H176.815V8.544H171.615ZM179.427 16V7.6H180.563V16H179.427ZM180.003 5.744C179.768 5.744 179.571 5.664 179.411 5.504C179.251 5.344 179.171 5.152 179.171 4.928C179.171 4.704 179.251 4.51733 179.411 4.368C179.571 4.208 179.768 4.128 180.003 4.128C180.237 4.128 180.435 4.20267 180.595 4.352C180.755 4.50133 180.835 4.688 180.835 4.912C180.835 5.14667 180.755 5.344 180.595 5.504C180.445 5.664 180.248 5.744 180.003 5.744ZM187.148 16.08C186.337 16.08 185.606 15.8987 184.956 15.536C184.316 15.1627 183.809 14.656 183.436 14.016C183.062 13.3653 182.876 12.624 182.876 11.792C182.876 10.9493 183.062 10.208 183.436 9.568C183.809 8.928 184.316 8.42667 184.956 8.064C185.596 7.70133 186.326 7.52 187.148 7.52C187.98 7.52 188.716 7.70133 189.356 8.064C190.006 8.42667 190.513 8.928 190.876 9.568C191.249 10.208 191.436 10.9493 191.436 11.792C191.436 12.624 191.249 13.3653 190.876 14.016C190.513 14.656 190.006 15.1627 189.356 15.536C188.705 15.8987 187.969 16.08 187.148 16.08ZM187.148 15.072C187.756 15.072 188.294 14.9387 188.764 14.672C189.233 14.3947 189.601 14.0107 189.868 13.52C190.145 13.0187 190.284 12.4427 190.284 11.792C190.284 11.1307 190.145 10.5547 189.868 10.064C189.601 9.57333 189.233 9.19467 188.764 8.928C188.294 8.65067 187.761 8.512 187.164 8.512C186.566 8.512 186.033 8.65067 185.564 8.928C185.094 9.19467 184.721 9.57333 184.444 10.064C184.166 10.5547 184.028 11.1307 184.028 11.792C184.028 12.4427 184.166 13.0187 184.444 13.52C184.721 14.0107 185.094 14.3947 185.564 14.672C186.033 14.9387 186.561 15.072 187.148 15.072ZM198.043 7.52C198.726 7.52 199.323 7.65333 199.835 7.92C200.358 8.176 200.763 8.57067 201.051 9.104C201.35 9.63733 201.499 10.3093 201.499 11.12V16H200.363V11.232C200.363 10.3467 200.139 9.68 199.691 9.232C199.254 8.77333 198.635 8.544 197.835 8.544C197.238 8.544 196.715 8.66667 196.267 8.912C195.83 9.14667 195.488 9.49333 195.243 9.952C195.008 10.4 194.891 10.944 194.891 11.584V16H193.755V7.6H194.843V9.904L194.667 9.472C194.934 8.864 195.36 8.38933 195.947 8.048C196.534 7.696 197.232 7.52 198.043 7.52ZM213.859 16.096C213.016 16.096 212.238 15.9573 211.523 15.68C210.808 15.392 210.19 14.992 209.667 14.48C209.144 13.968 208.734 13.3653 208.435 12.672C208.147 11.9787 208.003 11.2213 208.003 10.4C208.003 9.57867 208.147 8.82133 208.435 8.128C208.734 7.43467 209.144 6.832 209.667 6.32C210.2 5.808 210.824 5.41333 211.539 5.136C212.254 4.848 213.032 4.704 213.875 4.704C214.686 4.704 215.448 4.84267 216.163 5.12C216.878 5.38667 217.48 5.792 217.971 6.336L217.219 7.088C216.76 6.61867 216.254 6.28267 215.699 6.08C215.144 5.86667 214.547 5.76 213.907 5.76C213.235 5.76 212.611 5.87733 212.035 6.112C211.459 6.336 210.958 6.66133 210.531 7.088C210.104 7.504 209.768 7.99467 209.523 8.56C209.288 9.11467 209.171 9.728 209.171 10.4C209.171 11.072 209.288 11.6907 209.523 12.256C209.768 12.8107 210.104 13.3013 210.531 13.728C210.958 14.144 211.459 14.4693 212.035 14.704C212.611 14.928 213.235 15.04 213.907 15.04C214.547 15.04 215.144 14.9333 215.699 14.72C216.254 14.5067 216.76 14.1653 217.219 13.696L217.971 14.448C217.48 14.992 216.878 15.4027 216.163 15.68C215.448 15.9573 214.68 16.096 213.859 16.096ZM223.304 16.08C222.493 16.08 221.763 15.8987 221.112 15.536C220.472 15.1627 219.965 14.656 219.592 14.016C219.219 13.3653 219.032 12.624 219.032 11.792C219.032 10.9493 219.219 10.208 219.592 9.568C219.965 8.928 220.472 8.42667 221.112 8.064C221.752 7.70133 222.483 7.52 223.304 7.52C224.136 7.52 224.872 7.70133 225.512 8.064C226.163 8.42667 226.669 8.928 227.032 9.568C227.405 10.208 227.592 10.9493 227.592 11.792C227.592 12.624 227.405 13.3653 227.032 14.016C226.669 14.656 226.163 15.1627 225.512 15.536C224.861 15.8987 224.125 16.08 223.304 16.08ZM223.304 15.072C223.912 15.072 224.451 14.9387 224.92 14.672C225.389 14.3947 225.757 14.0107 226.024 13.52C226.301 13.0187 226.44 12.4427 226.44 11.792C226.44 11.1307 226.301 10.5547 226.024 10.064C225.757 9.57333 225.389 9.19467 224.92 8.928C224.451 8.65067 223.917 8.512 223.32 8.512C222.723 8.512 222.189 8.65067 221.72 8.928C221.251 9.19467 220.877 9.57333 220.6 10.064C220.323 10.5547 220.184 11.1307 220.184 11.792C220.184 12.4427 220.323 13.0187 220.6 13.52C220.877 14.0107 221.251 14.3947 221.72 14.672C222.189 14.9387 222.717 15.072 223.304 15.072Z" fill="#646464"/>
</svg>
